<?xml version="1.0" encoding="UTF-8" standalone="no"?>
<!-- Created with Inkscape (http://www.inkscape.org/) -->

<svg
   xmlns:dc="http://purl.org/dc/elements/1.1/"
   xmlns:cc="http://creativecommons.org/ns#"
   xmlns:rdf="http://www.w3.org/1999/02/22-rdf-syntax-ns#"
   xmlns:svg="http://www.w3.org/2000/svg"
   xmlns="http://www.w3.org/2000/svg"
   xmlns:sodipodi="http://sodipodi.sourceforge.net/DTD/sodipodi-0.dtd"
   xmlns:inkscape="http://www.inkscape.org/namespaces/inkscape"
   width="300"
   height="300"
   viewBox="0 0 79.375005 79.375002"
   version="1.1"
   id="svg8"
   inkscape:version="0.92.3 (2405546, 2018-03-11)"
   sodipodi:docname="luch.svg">
  <defs
     id="defs2" />
  <sodipodi:namedview
     id="base"
     pagecolor="#ffffff"
     bordercolor="#666666"
     borderopacity="1.0"
     inkscape:pageopacity="0.0"
     inkscape:pageshadow="2"
     inkscape:zoom="0.35"
     inkscape:cx="1252.3079"
     inkscape:cy="318.85482"
     inkscape:document-units="in"
     inkscape:current-layer="layer1"
     showgrid="false"
     units="px"
     inkscape:window-width="1697"
     inkscape:window-height="1212"
     inkscape:window-x="591"
     inkscape:window-y="224"
     inkscape:window-maximized="0" />
  <metadata
     id="metadata5">
    <rdf:RDF>
      <cc:Work
         rdf:about="">
        <dc:format>image/svg+xml</dc:format>
        <dc:type
           rdf:resource="http://purl.org/dc/dcmitype/StillImage" />
        <dc:title></dc:title>
      </cc:Work>
    </rdf:RDF>
  </metadata>
  <g
     inkscape:label="Layer 1"
     inkscape:groupmode="layer"
     id="layer1"
     transform="translate(0,-217.62498)">
    <g
       id="g4925"
       transform="translate(-105.49111,98.85331)">
      <g
         style="opacity:0.97000002;stroke-width:6.20735884;stroke-miterlimit:4;stroke-dasharray:6.20735881, 12.41471763;stroke-dashoffset:0"
         transform="matrix(1.1241936,0,0,1,-23.531188,12.294398)"
         id="g4880">
        <ellipse
           style="opacity:1;vector-effect:none;fill:#0087ba;fill-opacity:1;fill-rule:evenodd;stroke:none;stroke-width:6.20735884;stroke-linecap:round;stroke-linejoin:miter;stroke-miterlimit:4;stroke-dasharray:6.20735881, 12.41471763;stroke-dashoffset:0;stroke-opacity:1"
           id="path4847"
           cx="150.07184"
           cy="145.52499"
           rx="25.869261"
           ry="33.876411" />
        <path
           style="opacity:1;vector-effect:none;fill:#c52b2f;fill-opacity:1;fill-rule:evenodd;stroke:none;stroke-width:23.46088409;stroke-linecap:round;stroke-linejoin:miter;stroke-miterlimit:4;stroke-dasharray:23.46088399, 46.921768;stroke-dashoffset:0;stroke-opacity:1"
           d="m 525.16016,477.72656 a 57.386024,43.067606 65.837388 0 0 -16.91797,3.54492 57.386024,43.067606 65.837388 0 0 -13.44531,71.23633 57.386024,43.067606 65.837388 0 0 32.05078,32.23242 44.570398,55.756882 85.996291 0 0 -15.4043,31.31055 44.570398,55.756882 85.996291 0 0 55.88867,43.05664 44.570398,55.756882 85.996291 0 0 55.52735,-46.15234 44.570398,55.756882 85.996291 0 0 -14.69532,-29.5957 43.067606,57.386024 24.162612 0 0 29.06836,-30.85157 43.067606,57.386024 24.162612 0 0 -13.44531,-71.23633 43.067606,57.386024 24.162612 0 0 -57.77149,22.51954 57.386024,43.067606 65.837388 0 0 -40.85546,-26.06446 z"
           transform="scale(0.26458333)"
           id="ellipse4849"
           inkscape:connector-curvature="0" />
        <path
           transform="matrix(0.5006444,-0.86565304,-0.87728629,-0.47996746,0,0)"
           style="opacity:1;vector-effect:none;fill:#f9f9f9;fill-opacity:1;fill-rule:evenodd;stroke:none;stroke-width:6.2082324;stroke-linecap:round;stroke-linejoin:miter;stroke-miterlimit:4;stroke-dasharray:6.20823248, 12.41646496;stroke-dashoffset:0;stroke-opacity:1"
           d="m -50.867555,-189.36499 c -0.0169,3.62305 -3.384545,8.35698 -6.247887,7.17703 -1.946346,-0.80207 -4.140396,-3.7598 -4.254758,-7.17703 -0.121293,-3.62434 2.419569,-5.99802 5.251323,-6.56091 3.259464,-0.64791 5.268369,2.90667 5.251322,6.56091 z"
           id="ellipse4857"
           inkscape:connector-curvature="0"
           sodipodi:nodetypes="sssss" />
        <ellipse
           ry="9.6284914"
           rx="3.3879271"
           cy="-148.44041"
           cx="-165.60983"
           id="ellipse4860"
           style="opacity:1;vector-effect:none;fill:#f9f9f9;fill-opacity:1;fill-rule:evenodd;stroke:none;stroke-width:6.20737267;stroke-linecap:round;stroke-linejoin:miter;stroke-miterlimit:4;stroke-dasharray:6.20737259, 12.41474518;stroke-dashoffset:0;stroke-opacity:1"
           transform="matrix(-0.00923413,-0.99995736,-0.99992543,0.01221206,0,0)" />
        <path
           sodipodi:nodetypes="sssss"
           inkscape:connector-curvature="0"
           id="path4863"
           d="m 158.76558,134.92269 c 3.18691,-1.72432 9.02591,-1.08124 9.42428,1.96376 0.27078,2.06983 -1.22556,5.38873 -4.16619,7.12788 -3.11886,1.84457 -6.47333,0.78435 -8.38484,-1.3968 -2.20024,-2.51059 -0.0876,-5.95568 3.12675,-7.69484 z"
           style="opacity:1;vector-effect:none;fill:#f9f9f9;fill-opacity:1;fill-rule:evenodd;stroke:none;stroke-width:6.20735884;stroke-linecap:round;stroke-linejoin:miter;stroke-miterlimit:4;stroke-dasharray:6.20735881, 12.41471763;stroke-dashoffset:0;stroke-opacity:1" />
        <path
           transform="matrix(-0.00923413,-0.99995736,-0.99992543,0.01221206,0,0)"
           style="opacity:1;vector-effect:none;fill:#0076a1;fill-opacity:1;fill-rule:evenodd;stroke:none;stroke-width:6.20737267;stroke-linecap:round;stroke-linejoin:miter;stroke-miterlimit:4;stroke-dasharray:6.20737259, 12.41474518;stroke-dashoffset:0;stroke-opacity:1"
           d="m -146.63206,-148.63163 c 0.12471,4.73606 -7.28349,7.11143 -9.03994,7.22365 -1.8711,1e-5 -2.97478,-1.43235 -2.97478,-6.75002 0,-5.31768 1.12741,-6.69537 2.99851,-6.69537 1.66193,0.5019 8.9048,1.99093 9.01621,6.22174 z"
           id="ellipse4865"
           inkscape:connector-curvature="0"
           sodipodi:nodetypes="scscs" />
        <path
           transform="matrix(-0.00923413,-0.99995736,-0.99992543,0.01221206,0,0)"
           style="opacity:1;vector-effect:none;fill:#ffffff;fill-opacity:1;fill-rule:evenodd;stroke:none;stroke-width:6.20737267;stroke-linecap:round;stroke-linejoin:miter;stroke-miterlimit:4;stroke-dasharray:6.20737259, 12.41474518;stroke-dashoffset:0;stroke-opacity:1"
           d="m -155.51824,-148.99052 c 0,2.64944 -1.50009,5.74913 -2.43234,5.74913 -0.95837,-2.50609 -1.01514,-10.39442 0.74436,-10.54639 0.93225,1e-5 1.68798,2.14781 1.68798,4.79726 z"
           id="ellipse4867"
           inkscape:connector-curvature="0"
           sodipodi:nodetypes="sccs" />
      </g>
      <ellipse
         style="opacity:0.97000002;vector-effect:none;fill:none;fill-opacity:1;fill-rule:evenodd;stroke:#0087ba;stroke-width:6.58269262;stroke-linecap:round;stroke-linejoin:miter;stroke-miterlimit:4;stroke-dasharray:none;stroke-dashoffset:0;stroke-opacity:1"
         id="ellipse4914"
         cx="167.10092"
         cy="-139.63957"
         rx="32.562351"
         ry="32.143772"
         transform="matrix(0.0347125,0.99939734,-0.99812767,0.06116493,0,0)" />
    </g>
  </g>
</svg>
