<?xml version="1.0" encoding="UTF-8" standalone="no"?>
<svg
   xmlns:dc="http://purl.org/dc/elements/1.1/"
   xmlns:cc="http://creativecommons.org/ns#"
   xmlns:rdf="http://www.w3.org/1999/02/22-rdf-syntax-ns#"
   xmlns:svg="http://www.w3.org/2000/svg"
   xmlns="http://www.w3.org/2000/svg"
   xmlns:sodipodi="http://sodipodi.sourceforge.net/DTD/sodipodi-0.dtd"
   xmlns:inkscape="http://www.inkscape.org/namespaces/inkscape"
   width="47mm"
   height="39mm"
   viewBox="0 0 47 39"
   version="1.1"
   id="svg6511"
   sodipodi:docname="sltheromousesm.svg"
   inkscape:version="0.92.3 (2405546, 2018-03-11)">
  <sodipodi:namedview
     pagecolor="#ffffff"
     bordercolor="#666666"
     borderopacity="1"
     objecttolerance="10"
     gridtolerance="10"
     guidetolerance="10"
     inkscape:pageopacity="0"
     inkscape:pageshadow="2"
     inkscape:window-width="2238"
     inkscape:window-height="1409"
     id="namedview149"
     showgrid="false"
     inkscape:zoom="1.1321263"
     inkscape:cx="-10.408621"
     inkscape:cy="35.019278"
     inkscape:window-x="1077"
     inkscape:window-y="470"
     inkscape:window-maximized="0"
     inkscape:current-layer="svg6511" />
  <defs
     id="defs6505" />
  <metadata
     id="metadata6508">
    <rdf:RDF>
      <cc:Work
         rdf:about="">
        <dc:format>image/svg+xml</dc:format>
        <dc:type
           rdf:resource="http://purl.org/dc/dcmitype/StillImage" />
        <dc:title></dc:title>
      </cc:Work>
    </rdf:RDF>
  </metadata>
  <g
     id="layer1"
     transform="matrix(2.5642257,0,0,2.5642257,-36.808365,-691.9925)"
     inkscape:export-filename="C:\Users\stepan\Documents\GitHub\SMC_Spring_2019_WD3\week_10\img\meAtable.png"
     inkscape:export-xdpi="150"
     inkscape:export-ydpi="150">
    <g
       id="g6239"
       transform="matrix(0.27173319,0,0,0.27173319,8.985889,560.68696)">
      <path
         inkscape:connector-curvature="0"
         d="m -1.168992,-1018.1897 a 49.864388,49.864388 0 0 1 19.15167,-67.8659 49.864388,49.864388 0 0 1 67.867238,19.1469 49.864388,49.864388 0 0 1 -19.1422,67.86861 49.864388,49.864388 0 0 1 -67.869906,-19.13751"
         id="path7394"
         style="opacity:1;vector-effect:none;fill:#b3b3b3;fill-opacity:1;fill-rule:evenodd;stroke:none;stroke-width:15.00037861;stroke-linecap:round;stroke-linejoin:miter;stroke-miterlimit:4;stroke-dasharray:none;stroke-dashoffset:0;stroke-opacity:1" />
      <path
         inkscape:connector-curvature="0"
         id="path6231"
         d="m 62.807778,-1053.2387 v 10.0289 c -1.604602,2.0588 -4.31139,3.6235 -7.214547,4.4204 a 14.793906,8.1836206 0 0 0 5.463752,-1.0661 14.793906,8.1836206 0 0 0 5.168675,-11.1967 14.793906,8.1836206 0 0 0 -3.41788,-2.1865 z m -19.424652,0.3892 a 14.793906,8.1836206 0 0 0 -2.673223,10.0836 l 0.09095,0.085 a 14.793906,8.1836206 0 0 0 4.710309,2.6815 c -0.973987,-0.7846 -1.720459,-1.842 -2.128036,-3.2101 z"
         style="opacity:1;vector-effect:none;fill:#df8a8a;fill-opacity:1;fill-rule:evenodd;stroke:none;stroke-width:0.33245677;stroke-linecap:round;stroke-linejoin:miter;stroke-miterlimit:4;stroke-dasharray:none;stroke-dashoffset:0;stroke-opacity:1" />
      <path
         inkscape:connector-curvature="0"
         id="path6233"
         d="m 42.630843,-1065.8641 v 20.114 c 1.720189,5.7741 9.452404,6.0455 15.018201,3.3755 -5.486811,2.2952 -12.618703,1.8005 -14.262175,-3.716 v -19.7735 z"
         style="opacity:1;vector-effect:none;fill:#d25a5a;fill-opacity:1;fill-rule:nonzero;stroke:none;stroke-width:0.2076311;stroke-linecap:round;stroke-linejoin:round;stroke-miterlimit:4;stroke-dasharray:none;stroke-dashoffset:0;stroke-opacity:1" />
      <path
         inkscape:connector-curvature="0"
         id="path6235"
         d="m 43.355525,-1064.4463 h 19.424826 v 20.1137 c -4.41297,5.662 -17.154906,7.6193 -19.424826,0 z"
         style="opacity:1;vector-effect:none;fill:#da7878;fill-opacity:1;fill-rule:nonzero;stroke:none;stroke-width:0.2076311;stroke-linecap:round;stroke-linejoin:round;stroke-miterlimit:4;stroke-dasharray:none;stroke-dashoffset:0;stroke-opacity:1" />
      <g
         transform="translate(-112.19302,3.3696429)"
         id="g5842">
        <g
           id="g4883"
           transform="translate(-13.946554,8.8383974)"
           style="fill:#808080">
          <path
             inkscape:connector-curvature="0"
             id="path6245"
             d="m 167.75553,-1064.2657 c -9.77631,5.1715 -21.0305,5.4646 -26.60475,14.3947 l -6.15365,11.7534 -0.61537,9.7228 44.94227,0.1227 v 4e-4 l 0.0512,-2e-4 0.0512,2e-4 v -4e-4 l 44.94227,-0.1227 -0.61537,-9.7228 -6.15365,-11.7534 c -5.57424,-8.9301 -16.82849,-9.2232 -26.6048,-14.3947 0.58688,9.269 -5.27867,9.6409 -11.61962,10.2056 -6.34093,-0.5647 -12.20655,-0.9366 -11.61966,-10.2056 z"
             style="fill:#808080;stroke:none;stroke-width:0.33245671;stroke-linecap:butt;stroke-linejoin:miter;stroke-opacity:1" />
        </g>
        <path
           inkscape:connector-curvature="0"
           style="opacity:1;vector-effect:none;fill:#333333;fill-opacity:1;fill-rule:nonzero;stroke:none;stroke-width:0.19557382;stroke-linecap:round;stroke-linejoin:round;stroke-miterlimit:4;stroke-dasharray:none;stroke-dashoffset:0;stroke-opacity:1"
           d="m 165.47375,-1039.8712 c -1.52967,0 -2.76817,1.2301 -2.85202,2.7895 -0.84027,0.037 -1.51504,0.1835 -1.75131,0.3762 -0.22012,0.1275 -0.45278,0.5079 -0.58291,0.9937 -0.17243,0.6435 -0.098,1.2187 0.16691,1.2899 0.26495,0.071 0.61719,-0.3901 0.78962,-1.0336 0.0734,-0.274 0.0995,-0.5326 0.0879,-0.7482 0.32567,0.09 0.77293,0.1529 1.28209,0.1762 v 2.0918 c -0.83656,0.037 -1.50803,0.1831 -1.74356,0.3752 -0.22012,0.1275 -0.45278,0.5081 -0.58291,0.9938 -0.17243,0.6435 -0.098,1.2188 0.16691,1.2898 0.26495,0.071 0.61719,-0.39 0.78962,-1.0335 0.0734,-0.274 0.0995,-0.5327 0.0879,-0.7483 0.32567,0.09 0.77293,0.1534 1.28209,0.1767 v 1.4924 c 0,0.2043 0.0201,0.4035 0.0579,0.5959 -0.86376,0.033 -1.56044,0.1822 -1.80144,0.3788 -0.22012,0.1275 -0.45278,0.508 -0.58291,0.9937 -0.17243,0.6435 -0.098,1.2188 0.16691,1.2898 0.26495,0.071 0.61719,-0.39 0.78962,-1.0335 0.0734,-0.274 0.0995,-0.5327 0.0879,-0.7483 0.41244,0.114 1.01562,0.1876 1.69912,0.1876 0.0257,0 0.0495,0 0.0749,0 0.51349,0.7825 1.3805,1.295 2.36781,1.295 0.98682,0 1.8532,-0.5121 2.36678,-1.294 0.67735,0 1.27523,-0.074 1.68466,-0.1871 -0.0117,0.2156 0.0145,0.4743 0.0879,0.7483 0.17243,0.6435 0.52466,1.1045 0.78961,1.0335 0.26491,-0.071 0.33935,-0.6463 0.16692,-1.2898 -0.13013,-0.4857 -0.36279,-0.8662 -0.58291,-0.9937 -0.2325,-0.1897 -0.89051,-0.3341 -1.71204,-0.3737 0.0384,-0.194 0.0589,-0.3948 0.0589,-0.601 v -1.4955 c 0.47213,-0.026 0.88502,-0.089 1.19166,-0.1736 -0.0117,0.2156 0.0145,0.4743 0.0879,0.7483 0.17243,0.6435 0.52466,1.1045 0.78961,1.0335 0.26491,-0.071 0.33935,-0.6463 0.16692,-1.2898 -0.13013,-0.4857 -0.36279,-0.8663 -0.58291,-0.9938 -0.22684,-0.185 -0.85959,-0.3264 -1.65313,-0.37 v -2.1001 c 0.47213,-0.026 0.88502,-0.088 1.19166,-0.1731 -0.0117,0.2156 0.0145,0.4742 0.0879,0.7482 0.17243,0.6435 0.52466,1.1046 0.78961,1.0336 0.26491,-0.071 0.33935,-0.6464 0.16692,-1.2899 -0.13013,-0.4857 -0.36279,-0.8662 -0.58291,-0.9937 -0.22759,-0.1856 -0.86366,-0.328 -1.66088,-0.3711 -0.0814,-1.5617 -1.32067,-2.7946 -2.85203,-2.7946 z"
           id="rect6847" />
      </g>
      <g
         transform="translate(-185.21777,33.602083)"
         id="g5834">
        <path
           inkscape:connector-curvature="0"
           style="opacity:1;vector-effect:none;fill:#e6e6e6;fill-opacity:1;fill-rule:evenodd;stroke:none;stroke-width:14.87447453;stroke-linecap:round;stroke-linejoin:miter;stroke-miterlimit:4;stroke-dasharray:none;stroke-dashoffset:0;stroke-opacity:1"
           d="m 226.78685,-1146.8007 a 70.868645,70.868645 0 0 0 -33.88423,9.0279 70.868645,70.868645 0 0 0 -33.52664,80.9868 l 18.72082,-16.2036 a 49.576272,49.576272 0 0 1 25.20777,-46.2045 49.576272,49.576272 0 0 1 23.70346,-6.3153 49.576272,49.576272 0 0 1 43.77149,25.3514 49.576272,49.576272 0 0 1 -19.03191,67.4765 49.576272,49.576272 0 0 1 -39.24826,3.9511 l -17.92552,15.5159 a 70.868645,70.868645 0 0 0 67.57831,-0.8894 70.868645,70.868645 0 0 0 27.20558,-96.4566 70.868645,70.868645 0 0 0 -62.57087,-36.2402 z"
           id="path4039" />
        <path
           inkscape:connector-curvature="0"
           style="opacity:1;vector-effect:none;fill:#999999;fill-opacity:1;fill-rule:nonzero;stroke:none;stroke-width:1.84401202;stroke-linecap:round;stroke-linejoin:round;stroke-miterlimit:4;stroke-dasharray:none;stroke-dashoffset:0;stroke-opacity:1"
           d="m 178.09677,-1072.9898 -18.72082,16.1996 14.42444,0.068 4.29844,-3.7197 v -12.5476 z"
           id="rect4053" />
        <path
           inkscape:connector-curvature="0"
           id="path4060"
           d="m 194.57499,-1013.2143 17.92436,-15.5161 -13.82803,-0.045 -4.11555,3.5628 0.0173,11.9983 z"
           style="opacity:1;vector-effect:none;fill:#999999;fill-opacity:1;fill-rule:nonzero;stroke:none;stroke-width:1.76552427;stroke-linecap:round;stroke-linejoin:round;stroke-miterlimit:4;stroke-dasharray:none;stroke-dashoffset:0;stroke-opacity:1" />
      </g>
      <path
         inkscape:connector-curvature="0"
         id="rect6237"
         d="m 51.051798,-1050.0494 c -0.09812,0.7337 0.125447,1.524 0.67903,2.1414 0.962797,1.074 2.542278,1.2055 3.541387,0.2946 0.596474,-0.5438 0.844259,-1.3325 0.744656,-2.1084 -0.07238,0.5427 -0.319773,1.0544 -0.744656,1.4418 -0.999109,0.9108 -2.57859,0.7799 -3.541387,-0.294 -0.388134,-0.433 -0.611881,-0.9515 -0.67903,-1.4754 z"
         style="opacity:1;vector-effect:none;fill:#a02c2c;fill-opacity:1;fill-rule:nonzero;stroke:none;stroke-width:0.49704179;stroke-linecap:round;stroke-linejoin:round;stroke-miterlimit:4;stroke-dasharray:none;stroke-dashoffset:0;stroke-opacity:1" />
      <rect
         transform="matrix(0.73899419,-0.6737118,-0.66752359,-0.74458865,0,0)"
         ry="39.255547"
         rx="62.953579"
         y="737.46082"
         x="738.492"
         height="5.2070055"
         width="4.8808069"
         id="rect6239"
         style="opacity:1;vector-effect:none;fill:#e19292;fill-opacity:1;fill-rule:nonzero;stroke:none;stroke-width:0.49705043;stroke-linecap:round;stroke-linejoin:round;stroke-miterlimit:4;stroke-dasharray:none;stroke-dashoffset:0;stroke-opacity:1" />
      <rect
         style="opacity:1;vector-effect:none;fill:#e9afaf;fill-opacity:1;fill-rule:nonzero;stroke:none;stroke-width:0.31784388;stroke-linecap:round;stroke-linejoin:round;stroke-miterlimit:4;stroke-dasharray:none;stroke-dashoffset:0;stroke-opacity:1"
         id="rect6267"
         width="3.1210811"
         height="3.3296716"
         x="739.1665"
         y="739.02765"
         rx="62.953579"
         ry="39.255547"
         transform="matrix(0.73899419,-0.6737118,-0.66752359,-0.74458865,0,0)" />
      <path
         inkscape:connector-curvature="0"
         d="m 39.244816,-1066.6604 a 4.8951852,1.4576775 81.623314 0 1 -0.45844,-6.6916 4.8951852,1.4576775 81.623314 0 1 2.22365,1.4217 4.8951852,1.4576775 81.623314 0 1 0.47186,6.7002 4.8951852,1.4576775 81.623314 0 1 -2.22079,-1.3812"
         id="path6269"
         style="opacity:1;vector-effect:none;fill:#da7d7d;fill-opacity:1;fill-rule:evenodd;stroke:none;stroke-width:2.63887525;stroke-linecap:round;stroke-linejoin:miter;stroke-miterlimit:4;stroke-dasharray:none;stroke-dashoffset:0;stroke-opacity:1" />
      <path
         inkscape:connector-curvature="0"
         d="m 42.044711,-1063.6454 a 13.665254,20.879383 0 0 1 5.248484,-28.417 13.665254,20.879383 0 0 1 18.598906,8.0172 13.665254,20.879383 0 0 1 -5.245888,28.4182 13.665254,20.879383 0 0 1 -18.599638,-8.0133"
         id="path4192"
         style="opacity:1;vector-effect:none;fill:#e19494;fill-opacity:1;fill-rule:evenodd;stroke:none;stroke-width:15.42658806;stroke-linecap:round;stroke-linejoin:miter;stroke-miterlimit:4;stroke-dasharray:none;stroke-dashoffset:0;stroke-opacity:1" />
      <path
         inkscape:connector-curvature="0"
         d="m 50.835908,-1067.5765 a 6.9928045,7.7452775 0 0 1 9.552465,2.7701 6.9928045,7.7452775 0 0 1 -2.47195,10.5884 6.9928045,7.7452775 0 0 1 -9.567365,-2.7061 6.9928045,7.7452775 0 0 1 2.414189,-10.6047"
         id="path4708"
         style="opacity:1;vector-effect:none;fill:#dd8585;fill-opacity:1;fill-rule:evenodd;stroke:none;stroke-width:0.85020018;stroke-linecap:round;stroke-linejoin:miter;stroke-miterlimit:4;stroke-dasharray:none;stroke-dashoffset:0;stroke-opacity:1" />
      <path
         inkscape:connector-curvature="0"
         d="m 51.996766,-1067.878 a 1.087819,0.78322963 0 0 1 0.41776,-1.0659 1.087819,0.78322963 0 0 1 1.48055,0.3006 1.087819,0.78322963 0 0 1 -0.4174,1.0661 1.087819,0.78322963 0 0 1 -1.48065,-0.3004 l 0.94896,-0.3829 z"
         id="path6273"
         style="opacity:1;vector-effect:none;fill:#501616;fill-opacity:1;fill-rule:evenodd;stroke:none;stroke-width:2.63887525;stroke-linecap:round;stroke-linejoin:miter;stroke-miterlimit:4;stroke-dasharray:none;stroke-dashoffset:0;stroke-opacity:1" />
      <path
         inkscape:connector-curvature="0"
         d="m 50.776554,-1054.7486 a 4.1456359,2.2932626 0 0 1 1.482578,-3.1327 4.1456359,2.2932626 0 0 1 5.667552,0.8107 4.1456359,2.2932626 0 0 1 -1.448346,3.1376 4.1456359,2.2932626 0 0 1 -5.676304,-0.7917"
         id="path6275"
         style="opacity:1;vector-effect:none;fill:#e49d9d;fill-opacity:1;fill-rule:evenodd;stroke:none;stroke-width:0.13506286;stroke-linecap:round;stroke-linejoin:miter;stroke-miterlimit:4;stroke-dasharray:none;stroke-dashoffset:0;stroke-opacity:1" />
      <path
         inkscape:connector-curvature="0"
         style="opacity:1;vector-effect:none;fill:#da7d7d;fill-opacity:1;fill-rule:evenodd;stroke:none;stroke-width:2.32013297;stroke-linecap:round;stroke-linejoin:miter;stroke-miterlimit:4;stroke-dasharray:none;stroke-dashoffset:0;stroke-opacity:1"
         id="path6278"
         d="m 67.835986,-1066.788 a 1.1141968,4.9505874 6.0359695 0 0 0.34883,-6.7978 1.1141968,4.9505874 6.0359695 0 0 -1.69205,1.4442 1.1141968,4.9505874 6.0359695 0 0 -0.35906,6.8065 1.1141968,4.9505874 6.0359695 0 0 1.68989,-1.4031" />
      <path
         inkscape:connector-curvature="0"
         id="path6280"
         d="m 41.005246,-1071.0677 c -0.21588,-1.209 -0.34024,-2.4318 -1.62361,-3.4798 0.54795,-9.1176 2.1172,-14.1645 4.10455,-16.3926 4.80861,-5.0107 14.77434,-8.6776 21.26755,1.9586 2.27985,3.4122 2.72523,6.8243 3.18345,10.2365 l -1.08237,7.1155 -1.08236,-6.6786 -0.0637,-5.3055 -1.33706,-3.6202 c -2.65193,-1.6722 -5.09241,-2.4622 -8.65897,-1.0611 l -3.2471,2.3095 c 0.0162,-0.4357 -0.66105,-0.2887 -1.20971,-0.2497 0.80638,-0.43 1.59073,-0.8727 1.40071,-1.8725 -0.91258,-1.8874 -1.82517,-0.439 -2.73774,-0.1249 -1.15726,-0.9518 -2.53937,0.01 -3.94748,1.186 l -0.0637,1.4356 c -0.38941,-0.5999 -0.36416,-1.3943 -2.61044,-1.1236 -1.29477,2.3604 -0.25672,4.4666 -0.19101,6.6787 -2.35827,3.2828 -1.4007,5.9921 -2.10106,8.9881 z"
         style="fill:#2b1100;stroke:none;stroke-width:0.16622835;stroke-linecap:butt;stroke-linejoin:miter;stroke-opacity:1" />
      <path
         inkscape:connector-curvature="0"
         id="path6284"
         d="m 45.168555,-1077.5797 c 4.70677,-1.3262 5.88942,-0.5103 6.46132,0.6769 -2.15378,-0.2256 -4.91459,-0.5727 -6.46132,-0.6769 z"
         style="fill:#2b1100;fill-opacity:1;stroke:none;stroke-width:0.04398125px;stroke-linecap:butt;stroke-linejoin:miter;stroke-opacity:1" />
      <path
         inkscape:connector-curvature="0"
         style="opacity:1;vector-effect:none;fill:#d15f5f;fill-opacity:1;fill-rule:evenodd;stroke:none;stroke-width:0.16622835;stroke-linecap:round;stroke-linejoin:miter;stroke-miterlimit:4;stroke-dasharray:none;stroke-dashoffset:0;stroke-opacity:1"
         id="path6286"
         d="m 54.384586,-1066.8772 a 1.0701863,1.9346253 0 0 1 1.46192,0.6919 1.0701863,1.9346253 0 0 1 -0.37831,2.6448 1.0701863,1.9346253 0 0 1 -1.4642,-0.6759 1.0701863,1.9346253 0 0 1 0.36947,-2.6489" />
      <path
         inkscape:connector-curvature="0"
         id="path6288"
         d="m 49.600676,-1062.6371 9.78428,-0.1538 c -0.71966,-0.5222 -2.01208,-0.758 -3.1999,-1.0461 -0.1666,0.3487 -0.65732,0.4382 -1.23072,0.4615 -0.58371,-0.064 -1.02559,-0.2133 -1.19996,-0.5231 -1.80944,0.2612 -2.98572,0.7598 -4.1537,1.2615 z"
         style="fill:#c83737;stroke:none;stroke-width:0.16622835;stroke-linecap:butt;stroke-linejoin:miter;stroke-opacity:1" />
      <path
         inkscape:connector-curvature="0"
         style="opacity:1;vector-effect:none;fill:#501616;fill-opacity:1;fill-rule:evenodd;stroke:none;stroke-width:2.63887525;stroke-linecap:round;stroke-linejoin:miter;stroke-miterlimit:4;stroke-dasharray:none;stroke-dashoffset:0;stroke-opacity:1"
         id="path6290"
         d="m 55.999926,-1067.9215 a 1.087819,0.78322963 0 0 1 0.41776,-1.0659 1.087819,0.78322963 0 0 1 1.48056,0.3006 1.087819,0.78322963 0 0 1 -0.41742,1.0661 1.087819,0.78322963 0 0 1 -1.48064,-0.3004 l 0.94896,-0.3829 z" />
      <path
         inkscape:connector-curvature="0"
         id="path6292"
         d="m 52.52109,-1070.0757 c -1.73339,1.0628 -1.35577,1.8885 -0.43434,2.6306 l 0.0815,-0.8164 c 0.26906,-0.5039 1.00684,-0.2466 1.58788,0.771 0.25058,0.195 0.58722,0.6502 1.01814,0.6088 0.43094,0.041 0.76758,-0.4138 1.01818,-0.6088 0.58102,-1.0176 1.31882,-1.2749 1.58788,-0.771 l 0.0814,0.8164 c 0.92145,-0.7421 1.29906,-1.5678 -0.43432,-2.6306 -0.36965,-1.1431 -0.95396,-4.7138 -2.00673,-4.7134 -0.0759,0 -0.15943,0.01 -0.24645,0.019 -1.49823,0.072 -2.13568,3.9617 -2.25314,4.694 z"
         style="opacity:1;fill:#da7a7a;fill-opacity:1;stroke:none;stroke-width:0.17528586;stroke-linecap:butt;stroke-linejoin:miter;stroke-opacity:1" />
      <path
         inkscape:connector-curvature="0"
         id="path6294"
         d="m 49.600676,-1062.6371 c 2.17322,1.6096 6.82142,2.1355 9.78428,-0.1538 l -9.78428,0.1538"
         style="fill:#d35f5f;stroke:none;stroke-width:0.16622835;stroke-linecap:butt;stroke-linejoin:miter;stroke-opacity:1" />
      <path
         inkscape:connector-curvature="0"
         style="fill:#2b1100;fill-opacity:1;stroke:none;stroke-width:0.04398125px;stroke-linecap:butt;stroke-linejoin:miter;stroke-opacity:1"
         d="m 63.232732,-1077.5797 c -4.70676,-1.3262 -5.88942,-0.5103 -6.46131,0.6769 2.15377,-0.2256 4.91459,-0.5727 6.46131,-0.6769 z"
         id="path6296" />
      <path
         inkscape:connector-curvature="0"
         style="opacity:1;vector-effect:none;fill:#cf5050;fill-opacity:1;fill-rule:nonzero;stroke:none;stroke-width:0.21114916;stroke-linecap:round;stroke-linejoin:round;stroke-miterlimit:4;stroke-dasharray:none;stroke-dashoffset:0;stroke-opacity:1"
         d="m 39.185426,-1070.7034 c 0.0293,0.7843 0.3608,-0.2529 0.54787,0.402 0.12564,0.4399 0.13355,1.2457 0.0288,1.9776 -0.14613,1.0207 0.14404,1.5756 0.4203,1.6981 0.28639,-1.7537 0.60511,-2.3523 0.2843,-4.0788 -0.32228,-1.7274 -1.33362,-1.4013 -1.28124,0 z"
         id="path6298" />
      <rect
         ry="39.906738"
         rx="28.417824"
         y="-1074.9143"
         x="53.840561"
         height="7.4238577"
         width="1.9518892"
         id="rect6300"
         style="opacity:1;vector-effect:none;fill:#e39797;fill-opacity:1;fill-rule:nonzero;stroke:none;stroke-width:0.30123562;stroke-linecap:round;stroke-linejoin:round;stroke-miterlimit:4;stroke-dasharray:none;stroke-dashoffset:0;stroke-opacity:1" />
      <path
         inkscape:connector-curvature="0"
         id="path6312"
         d="m 67.034716,-1070.9807 c -0.17713,0.8633 0.39674,-0.1124 0.39794,0.6815 0.001,0.5332 -0.20151,1.4102 -0.48798,2.1566 -0.39953,1.0409 -0.27772,1.7726 -0.0562,2.0293 0.71884,-1.7726 1.1669,-2.2786 1.32172,-4.294 0.1537,-2.0171 -0.8588,-2.1171 -1.17553,-0.5734 z"
         style="opacity:1;vector-effect:none;fill:#cf5050;fill-opacity:1;fill-rule:nonzero;stroke:none;stroke-width:0.22255516;stroke-linecap:round;stroke-linejoin:round;stroke-miterlimit:4;stroke-dasharray:none;stroke-dashoffset:0;stroke-opacity:1" />
      <g
         transform="translate(-95.125931,-3.6352188)"
         id="g4222">
        <g
           id="g4216">
          <path
             inkscape:connector-curvature="0"
             style="opacity:1;vector-effect:none;fill:#000000;fill-opacity:1;fill-rule:evenodd;stroke:none;stroke-width:3.08933735;stroke-linecap:round;stroke-linejoin:miter;stroke-miterlimit:4;stroke-dasharray:none;stroke-dashoffset:0;stroke-opacity:1"
             id="path6316"
             d="m 130.55474,-1062.4776 a 2.7419289,6.3519424 0 0 1 1.05311,-8.6451 2.7419289,6.3519424 0 0 1 3.73186,2.439 2.7419289,6.3519424 0 0 1 -1.05258,8.6454 2.7419289,6.3519424 0 0 1 -3.73201,-2.4378" />
          <path
             inkscape:connector-curvature="0"
             d="m 166.69759,-1062.4776 a 2.7419289,6.3519424 0 0 0 -1.0531,-8.6451 2.7419289,6.3519424 0 0 0 -3.73187,2.439 2.7419289,6.3519424 0 0 0 1.05259,8.6454 2.7419289,6.3519424 0 0 0 3.73201,-2.4378"
             id="path6320"
             style="opacity:1;vector-effect:none;fill:#000000;fill-opacity:1;fill-rule:evenodd;stroke:none;stroke-width:3.08933735;stroke-linecap:round;stroke-linejoin:miter;stroke-miterlimit:4;stroke-dasharray:none;stroke-dashoffset:0;stroke-opacity:1" />
        </g>
        <path
           inkscape:connector-curvature="0"
           style="opacity:1;vector-effect:none;fill:#000000;fill-opacity:1;fill-rule:evenodd;stroke:none;stroke-width:15.875;stroke-linecap:round;stroke-linejoin:miter;stroke-miterlimit:4;stroke-dasharray:none;stroke-dashoffset:0;stroke-opacity:1"
           d="m 148.44751,-1091.7287 a 17.640217,20.786243 0 0 0 -8.43411,2.6479 17.640217,20.786243 0 0 0 -8.51473,23.0854 h 0.9462 a 16.741352,19.727072 0 0 1 8.00778,-22.1562 16.741352,19.727072 0 0 1 8.00416,-2.5131 16.741352,19.727072 0 0 1 14.78153,10.0878 16.741352,19.727072 0 0 1 1.58026,14.5815 h 0.93069 a 17.640217,20.786243 0 0 0 -1.72702,-15.104 17.640217,20.786243 0 0 0 -15.57476,-10.6293 z"
           id="path4196" />
      </g>
      <path
         inkscape:connector-curvature="0"
         id="rect4666"
         d="m 45.940671,-1077.1162 c -0.266095,0.021 -0.722788,0.054 -0.722788,0.054 l -2.551052,0.3465 h -0.95118 c -0.251801,0 -0.454507,0.1885 -0.454507,0.4227 v 0.9499 c 0,0.2343 0.202706,0.4228 0.454507,0.4228 h 0.324811 l 0.05746,0.1344 1.085423,2.9422 c 0.351997,1.1904 1.449792,2.0544 2.757327,2.0544 h 4.138417 c 0.970269,0 1.824686,-0.4761 2.345086,-1.208 l 0.0047,-10e-5 0.01405,-0.026 c 0.123152,-0.1774 0.226636,-0.3693 0.307758,-0.573 l 1.784961,-3.3238 h 0.768674 l 1.78496,3.3238 c 0.0811,0.2037 0.18461,0.3956 0.30776,0.573 l 0.0141,0.026 0.005,10e-5 c 0.5204,0.7319 1.37482,1.208 2.34509,1.208 h 4.13839 c 1.30753,0 2.40533,-0.864 2.75733,-2.0544 l 1.08542,-2.9422 0.0575,-0.1344 h 0.33546 c 0.2518,0 0.4545,-0.1885 0.4545,-0.4228 v -0.9499 c 0,-0.2342 -0.2027,-0.4227 -0.4545,-0.4227 h -0.96186 l -2.55105,-0.3465 c -0.24655,0 -0.50956,-0.041 -0.72279,-0.054 h -4.13842 c -0.76685,0.046 -1.5121,0.2462 -2.29641,0.402 h -5.088873 c -0.757751,-0.1332 -1.554191,-0.3587 -2.296411,-0.403 z"
         style="opacity:1;vector-effect:none;fill:#000000;fill-opacity:1;fill-rule:nonzero;stroke:none;stroke-width:0.05450181" />
      <g
         id="g6095">
        <path
           inkscape:connector-curvature="0"
           d="m -21.651432,-1000.746 a 86.084526,14.794093 0 0 1 33.062925,-20.1349 86.084526,14.794093 0 0 1 117.164157,5.6806 86.084526,14.794093 0 0 1 -33.046566,20.13573 86.084526,14.794093 0 0 1 -117.168773,-5.67783"
           id="path4618"
           style="opacity:1;vector-effect:none;fill:#cccccc;fill-opacity:1;fill-rule:evenodd;stroke:none;stroke-width:9.19538021;stroke-linecap:round;stroke-linejoin:miter;stroke-miterlimit:4;stroke-dasharray:none;stroke-dashoffset:0;stroke-opacity:1" />
        <path
           inkscape:connector-curvature="0"
           style="opacity:1;vector-effect:none;fill:#cccccc;fill-opacity:1;fill-rule:evenodd;stroke:none;stroke-width:34.28686523;stroke-linecap:round;stroke-linejoin:miter;stroke-miterlimit:4;stroke-dasharray:none;stroke-dashoffset:0;stroke-opacity:1"
           d="m 198.73828,-3846.4336 a 320.98383,55.162816 0 0 0 -153.470702,7.0274 320.98383,55.162816 0 0 0 -148.378908,31.1953 l -20.26367,0.016 4.625,18.625 h 0.25391 a 320.98383,55.162816 0 0 0 40.482418,25.2402 l 0.04297,0.014 a 320.98383,55.162816 0 0 0 436.888672,21.1719 320.98383,55.162816 0 0 0 163.39453,-45.5508 h 0.5625 l 5.125,-20 -21.50391,0.016 a 320.98383,55.162816 0 0 0 -24.35742,-9.5449 320.98383,55.162816 0 0 0 -283.40039,-28.209 z"
           transform="scale(0.26458333)"
           id="path6088" />
      </g>
      <path
         inkscape:connector-curvature="0"
         d="m -15.779952,-1001.738 a 79.355728,13.637713 0 0 1 30.478561,-18.5611 79.355728,13.637713 0 0 1 108.006021,5.2366 79.355728,13.637713 0 0 1 -30.463482,18.56182 79.355728,13.637713 0 0 1 -108.010275,-5.23402"
         id="path4614"
         style="opacity:1;vector-effect:none;fill:#4d4d4d;fill-opacity:1;fill-rule:evenodd;stroke:none;stroke-width:8.47662449;stroke-linecap:round;stroke-linejoin:miter;stroke-miterlimit:4;stroke-dasharray:none;stroke-dashoffset:0;stroke-opacity:1" />
      <g
         transform="matrix(0.84176897,0,0,0.84176897,-137.41972,-112.44284)"
         id="g4612">
        <g
           id="g4421"
           transform="translate(-3.0364356,-20.355532)">
          <path
             inkscape:connector-curvature="0"
             style="opacity:1;vector-effect:none;fill:#333333;fill-opacity:1;fill-rule:nonzero;stroke:none;stroke-width:1.40492022;stroke-linecap:round;stroke-linejoin:round;stroke-miterlimit:4;stroke-dasharray:none;stroke-dashoffset:0;stroke-opacity:1"
             d="m 206.084,-1047.187 h 119.4045 c 1.88939,1.4136 2.35617,2.8538 0,3.9843 H 206.084 c -1.9495,-1.8155 -0.77113,-2.849 0,-3.9843 z"
             id="path6404" />
          <path
             inkscape:connector-curvature="0"
             id="path6406"
             d="m 220.23193,-1052.4345 -14.27968,5.2475 H 325.4885 l -14.27968,-5.2475 z"
             style="opacity:1;fill:#cccccc;fill-opacity:1;stroke:none;stroke-width:1.4050957;stroke-linecap:butt;stroke-linejoin:round;stroke-miterlimit:4;stroke-dasharray:none;stroke-opacity:1" />
        </g>
        <g
           id="g4450"
           transform="matrix(1.6102804,0,0,1.6102804,-192.46326,621.14488)">
          <path
             inkscape:connector-curvature="0"
             style="fill:#b3b3b3;stroke:none;stroke-width:0.05425382px;stroke-linecap:butt;stroke-linejoin:miter;stroke-opacity:1"
             d="m 311.0767,-1049.6811 0.41668,-0.6563 3.1084,-0.027 0.3675,0.6861 z"
             id="path6408" />
          <path
             inkscape:connector-curvature="0"
             style="fill:#4d4d4d;stroke:none;stroke-width:0.05425382px;stroke-linecap:butt;stroke-linejoin:miter;stroke-opacity:1"
             d="m 311.07934,-1049.6629 -0.0134,0.5911 h 3.90554 v -0.5778 z"
             id="path6410" />
        </g>
        <g
           id="g4444"
           transform="translate(-5.6798393,-20.237019)">
          <path
             inkscape:connector-curvature="0"
             id="path6540"
             d="m 213.91845,-1049.1894 -0.7165,1.1356 h 9.02207 l -0.57818,-1.1253 c -2.93392,0.4757 -4.81913,0.46 -7.72742,-0.01 z"
             style="fill:#4d4d4d;stroke:none;stroke-width:0.06709536px;stroke-linecap:butt;stroke-linejoin:miter;stroke-opacity:1" />
          <path
             inkscape:connector-curvature="0"
             style="fill:#4d4d4d;stroke:none;stroke-width:0.06709536px;stroke-linecap:butt;stroke-linejoin:miter;stroke-opacity:1"
             d="m 223.36153,-1049.1894 -0.7165,1.1356 h 9.02207 l -0.57818,-1.1253 c -2.93392,0.4757 -4.81913,0.46 -7.72742,-0.01 z"
             id="path6546" />
          <path
             inkscape:connector-curvature="0"
             style="fill:#4d4d4d"
             d="m 232.8046,-1049.1894 -0.7165,1.1356 h 9.02207 l -0.57818,-1.1253 c -2.93392,0.4757 -4.81913,0.46 -7.72742,-0.01 z"
             id="path6552" />
          <path
             inkscape:connector-curvature="0"
             id="path6558"
             d="m 242.24769,-1049.1894 -0.7165,1.1356 h 9.02207 l -0.57818,-1.1253 c -2.93392,0.4757 -4.81913,0.46 -7.72742,-0.01 z"
             style="fill:#4d4d4d;stroke:none;stroke-width:0.06709536px;stroke-linecap:butt;stroke-linejoin:miter;stroke-opacity:1" />
          <path
             inkscape:connector-curvature="0"
             id="path6564"
             d="m 251.69076,-1049.1894 -0.7165,1.1356 h 9.02207 l -0.57818,-1.1253 c -2.93392,0.4757 -4.81913,0.46 -7.72742,-0.01 z"
             style="fill:#4d4d4d;stroke:none;stroke-width:0.06709536px;stroke-linecap:butt;stroke-linejoin:miter;stroke-opacity:1" />
          <path
             inkscape:connector-curvature="0"
             style="fill:#4d4d4d;stroke:none;stroke-width:0.06709536px;stroke-linecap:butt;stroke-linejoin:miter;stroke-opacity:1"
             d="m 261.13383,-1049.1894 -0.7165,1.1356 h 9.02207 l -0.57818,-1.1253 c -2.93392,0.4757 -4.81913,0.46 -7.72742,-0.01 z"
             id="path6570" />
          <path
             inkscape:connector-curvature="0"
             style="fill:#4d4d4d;stroke:none;stroke-width:0.06709536px;stroke-linecap:butt;stroke-linejoin:miter;stroke-opacity:1"
             d="m 270.57691,-1049.1894 -0.7165,1.1356 h 9.02207 l -0.57818,-1.1253 c -2.93392,0.4757 -4.81913,0.46 -7.72742,-0.01 z"
             id="path6576" />
          <path
             inkscape:connector-curvature="0"
             id="path6582"
             d="m 280.01998,-1049.1894 -0.7165,1.1356 h 9.02207 l -0.57818,-1.1253 c -2.93392,0.4757 -4.81913,0.46 -7.72742,-0.01 z"
             style="fill:#4d4d4d;stroke:none;stroke-width:0.06709536px;stroke-linecap:butt;stroke-linejoin:miter;stroke-opacity:1" />
          <path
             inkscape:connector-curvature="0"
             id="path6588"
             d="m 289.46307,-1049.1894 -0.7165,1.1356 h 9.02207 l -0.57818,-1.1253 c -2.93392,0.4757 -4.81913,0.46 -7.72742,-0.01 z"
             style="fill:#4d4d4d;stroke:none;stroke-width:0.06709536px;stroke-linecap:butt;stroke-linejoin:miter;stroke-opacity:1" />
          <g
             id="g4417">
            <path
               inkscape:connector-curvature="0"
               style="fill:#b3b3b3;stroke:none;stroke-width:0.06709536px;stroke-linecap:butt;stroke-linejoin:miter;stroke-opacity:1"
               d="m 213.9132,-1049.2034 0.73403,-0.303 c 2.15551,0.3272 4.21471,0.3275 6.17132,-0.021 l 0.82287,0.3259 c -2.25453,0.4837 -4.98382,0.4763 -7.72822,0 z"
               id="path6538" />
            <path
               inkscape:connector-curvature="0"
               id="path6544"
               d="m 223.35628,-1049.2034 0.73403,-0.303 c 2.15551,0.3272 4.21471,0.3275 6.17132,-0.021 l 0.82287,0.3259 c -2.25453,0.4837 -4.98382,0.4763 -7.72822,0 z"
               style="fill:#b3b3b3;stroke:none;stroke-width:0.06709536px;stroke-linecap:butt;stroke-linejoin:miter;stroke-opacity:1" />
            <path
               inkscape:connector-curvature="0"
               id="path6550"
               d="m 232.79935,-1049.2034 0.73403,-0.303 c 2.15551,0.3272 4.21471,0.3275 6.17132,-0.021 l 0.82287,0.3259 c -2.25453,0.4837 -4.98382,0.4763 -7.72822,0 z"
               style="fill:#b3b3b3" />
            <path
               inkscape:connector-curvature="0"
               style="fill:#b3b3b3;stroke:none;stroke-width:0.06709536px;stroke-linecap:butt;stroke-linejoin:miter;stroke-opacity:1"
               d="m 242.24244,-1049.2034 0.73403,-0.303 c 2.15551,0.3272 4.21471,0.3275 6.17132,-0.021 l 0.82287,0.3259 c -2.25453,0.4837 -4.98382,0.4763 -7.72822,0 z"
               id="path6556" />
            <path
               inkscape:connector-curvature="0"
               style="fill:#b3b3b3;stroke:none;stroke-width:0.06709536px;stroke-linecap:butt;stroke-linejoin:miter;stroke-opacity:1"
               d="m 251.68551,-1049.2034 0.73403,-0.303 c 2.15551,0.3272 4.21471,0.3275 6.17132,-0.021 l 0.82287,0.3259 c -2.25453,0.4837 -4.98382,0.4763 -7.72822,0 z"
               id="path6562" />
            <path
               inkscape:connector-curvature="0"
               id="path6568"
               d="m 261.12858,-1049.2034 0.73403,-0.303 c 2.15551,0.3272 4.21471,0.3275 6.17132,-0.021 l 0.82287,0.3259 c -2.25453,0.4837 -4.98382,0.4763 -7.72822,0 z"
               style="fill:#b3b3b3;stroke:none;stroke-width:0.06709536px;stroke-linecap:butt;stroke-linejoin:miter;stroke-opacity:1" />
            <path
               inkscape:connector-curvature="0"
               id="path6574"
               d="m 270.57166,-1049.2034 0.73403,-0.303 c 2.15551,0.3272 4.21471,0.3275 6.17132,-0.021 l 0.82287,0.3259 c -2.25453,0.4837 -4.98382,0.4763 -7.72822,0 z"
               style="fill:#b3b3b3;stroke:none;stroke-width:0.06709536px;stroke-linecap:butt;stroke-linejoin:miter;stroke-opacity:1" />
            <path
               inkscape:connector-curvature="0"
               style="fill:#b3b3b3;stroke:none;stroke-width:0.06709536px;stroke-linecap:butt;stroke-linejoin:miter;stroke-opacity:1"
               d="m 280.01473,-1049.2034 0.73403,-0.303 c 2.15551,0.3272 4.21471,0.3275 6.17132,-0.021 l 0.82287,0.3259 c -2.25453,0.4837 -4.98382,0.4763 -7.72822,0 z"
               id="path6580" />
            <path
               inkscape:connector-curvature="0"
               style="fill:#b3b3b3;stroke:none;stroke-width:0.06709536px;stroke-linecap:butt;stroke-linejoin:miter;stroke-opacity:1"
               d="m 289.45782,-1049.2034 0.73403,-0.303 c 2.15551,0.3272 4.21471,0.3275 6.17132,-0.021 l 0.82287,0.3259 c -2.25453,0.4837 -4.98382,0.4763 -7.72822,0 z"
               id="path6586" />
            <path
               inkscape:connector-curvature="0"
               id="path6592"
               d="m 298.90089,-1049.2034 0.73403,-0.303 c 2.15551,0.3272 4.21471,0.3275 6.17132,-0.021 l 0.82287,0.3259 c -2.25453,0.4837 -4.98382,0.4763 -7.72822,0 z"
               style="fill:#b3b3b3;stroke:none;stroke-width:0.06709536px;stroke-linecap:butt;stroke-linejoin:miter;stroke-opacity:1" />
          </g>
          <path
             inkscape:connector-curvature="0"
             style="fill:#4d4d4d;stroke:none;stroke-width:0.06709536px;stroke-linecap:butt;stroke-linejoin:miter;stroke-opacity:1"
             d="m 298.90614,-1049.1894 -0.7165,1.1356 h 9.02207 l -0.57818,-1.1253 c -2.93392,0.4757 -4.81913,0.46 -7.72742,-0.01 z"
             id="path6594" />
        </g>
        <g
           transform="translate(-1.3416718,-21.801977)"
           id="g4494">
          <path
             inkscape:connector-curvature="0"
             style="fill:#4d4d4d;stroke:none;stroke-width:0.06709536px;stroke-linecap:butt;stroke-linejoin:miter;stroke-opacity:1"
             d="m 213.91845,-1049.1894 -0.7165,1.1356 h 9.02207 l -0.57818,-1.1253 c -2.93392,0.4757 -4.81913,0.46 -7.72742,-0.01 z"
             id="path4452" />
          <path
             inkscape:connector-curvature="0"
             id="path4454"
             d="m 223.36153,-1049.1894 -0.7165,1.1356 h 9.02207 l -0.57818,-1.1253 c -2.93392,0.4757 -4.81913,0.46 -7.72742,-0.01 z"
             style="fill:#4d4d4d;stroke:none;stroke-width:0.06709536px;stroke-linecap:butt;stroke-linejoin:miter;stroke-opacity:1" />
          <path
             inkscape:connector-curvature="0"
             id="path4456"
             d="m 232.8046,-1049.1894 -0.7165,1.1356 h 9.02207 l -0.57818,-1.1253 c -2.93392,0.4757 -4.81913,0.46 -7.72742,-0.01 z"
             style="fill:#4d4d4d" />
          <path
             inkscape:connector-curvature="0"
             style="fill:#4d4d4d;stroke:none;stroke-width:0.06709536px;stroke-linecap:butt;stroke-linejoin:miter;stroke-opacity:1"
             d="m 242.24769,-1049.1894 -0.7165,1.1356 h 9.02207 l -0.57818,-1.1253 c -2.93392,0.4757 -4.81913,0.46 -7.72742,-0.01 z"
             id="path4458" />
          <path
             inkscape:connector-curvature="0"
             style="fill:#4d4d4d;stroke:none;stroke-width:0.06709536px;stroke-linecap:butt;stroke-linejoin:miter;stroke-opacity:1"
             d="m 251.69076,-1049.1894 -0.7165,1.1356 h 9.02207 l -0.57818,-1.1253 c -2.93392,0.4757 -4.81913,0.46 -7.72742,-0.01 z"
             id="path4460" />
          <path
             inkscape:connector-curvature="0"
             id="path4462"
             d="m 261.13383,-1049.1894 -0.7165,1.1356 h 9.02207 l -0.57818,-1.1253 c -2.93392,0.4757 -4.81913,0.46 -7.72742,-0.01 z"
             style="fill:#4d4d4d;stroke:none;stroke-width:0.06709536px;stroke-linecap:butt;stroke-linejoin:miter;stroke-opacity:1" />
          <path
             inkscape:connector-curvature="0"
             id="path4464"
             d="m 270.57691,-1049.1894 -0.7165,1.1356 h 9.02207 l -0.57818,-1.1253 c -2.93392,0.4757 -4.81913,0.46 -7.72742,-0.01 z"
             style="fill:#4d4d4d;stroke:none;stroke-width:0.06709536px;stroke-linecap:butt;stroke-linejoin:miter;stroke-opacity:1" />
          <path
             inkscape:connector-curvature="0"
             style="fill:#4d4d4d;stroke:none;stroke-width:0.06709536px;stroke-linecap:butt;stroke-linejoin:miter;stroke-opacity:1"
             d="m 280.01998,-1049.1894 -0.7165,1.1356 h 9.02207 l -0.57818,-1.1253 c -2.93392,0.4757 -4.81913,0.46 -7.72742,-0.01 z"
             id="path4466" />
          <path
             inkscape:connector-curvature="0"
             style="fill:#4d4d4d;stroke:none;stroke-width:0.06709536px;stroke-linecap:butt;stroke-linejoin:miter;stroke-opacity:1"
             d="m 289.46307,-1049.1894 -0.7165,1.1356 h 9.02207 l -0.57818,-1.1253 c -2.93392,0.4757 -4.81913,0.46 -7.72742,-0.01 z"
             id="path4468" />
          <g
             id="g4490">
            <path
               inkscape:connector-curvature="0"
               id="path4470"
               d="m 213.9132,-1049.2034 0.73403,-0.303 c 2.15551,0.3272 4.21471,0.3275 6.17132,-0.021 l 0.82287,0.3259 c -2.25453,0.4837 -4.98382,0.4763 -7.72822,0 z"
               style="fill:#b3b3b3;stroke:none;stroke-width:0.06709536px;stroke-linecap:butt;stroke-linejoin:miter;stroke-opacity:1" />
            <path
               inkscape:connector-curvature="0"
               style="fill:#b3b3b3;stroke:none;stroke-width:0.06709536px;stroke-linecap:butt;stroke-linejoin:miter;stroke-opacity:1"
               d="m 223.35628,-1049.2034 0.73403,-0.303 c 2.15551,0.3272 4.21471,0.3275 6.17132,-0.021 l 0.82287,0.3259 c -2.25453,0.4837 -4.98382,0.4763 -7.72822,0 z"
               id="path4472" />
            <path
               inkscape:connector-curvature="0"
               style="fill:#b3b3b3"
               d="m 232.79935,-1049.2034 0.73403,-0.303 c 2.15551,0.3272 4.21471,0.3275 6.17132,-0.021 l 0.82287,0.3259 c -2.25453,0.4837 -4.98382,0.4763 -7.72822,0 z"
               id="path4474" />
            <path
               inkscape:connector-curvature="0"
               id="path4476"
               d="m 242.24244,-1049.2034 0.73403,-0.303 c 2.15551,0.3272 4.21471,0.3275 6.17132,-0.021 l 0.82287,0.3259 c -2.25453,0.4837 -4.98382,0.4763 -7.72822,0 z"
               style="fill:#b3b3b3;stroke:none;stroke-width:0.06709536px;stroke-linecap:butt;stroke-linejoin:miter;stroke-opacity:1" />
            <path
               inkscape:connector-curvature="0"
               id="path4478"
               d="m 251.68551,-1049.2034 0.73403,-0.303 c 2.15551,0.3272 4.21471,0.3275 6.17132,-0.021 l 0.82287,0.3259 c -2.25453,0.4837 -4.98382,0.4763 -7.72822,0 z"
               style="fill:#b3b3b3;stroke:none;stroke-width:0.06709536px;stroke-linecap:butt;stroke-linejoin:miter;stroke-opacity:1" />
            <path
               inkscape:connector-curvature="0"
               style="fill:#b3b3b3;stroke:none;stroke-width:0.06709536px;stroke-linecap:butt;stroke-linejoin:miter;stroke-opacity:1"
               d="m 261.12858,-1049.2034 0.73403,-0.303 c 2.15551,0.3272 4.21471,0.3275 6.17132,-0.021 l 0.82287,0.3259 c -2.25453,0.4837 -4.98382,0.4763 -7.72822,0 z"
               id="path4480" />
            <path
               inkscape:connector-curvature="0"
               style="fill:#b3b3b3;stroke:none;stroke-width:0.06709536px;stroke-linecap:butt;stroke-linejoin:miter;stroke-opacity:1"
               d="m 270.57166,-1049.2034 0.73403,-0.303 c 2.15551,0.3272 4.21471,0.3275 6.17132,-0.021 l 0.82287,0.3259 c -2.25453,0.4837 -4.98382,0.4763 -7.72822,0 z"
               id="path4482" />
            <path
               inkscape:connector-curvature="0"
               id="path4484"
               d="m 280.01473,-1049.2034 0.73403,-0.303 c 2.15551,0.3272 4.21471,0.3275 6.17132,-0.021 l 0.82287,0.3259 c -2.25453,0.4837 -4.98382,0.4763 -7.72822,0 z"
               style="fill:#b3b3b3;stroke:none;stroke-width:0.06709536px;stroke-linecap:butt;stroke-linejoin:miter;stroke-opacity:1" />
            <path
               inkscape:connector-curvature="0"
               id="path4486"
               d="m 289.45782,-1049.2034 0.73403,-0.303 c 2.15551,0.3272 4.21471,0.3275 6.17132,-0.021 l 0.82287,0.3259 c -2.25453,0.4837 -4.98382,0.4763 -7.72822,0 z"
               style="fill:#b3b3b3;stroke:none;stroke-width:0.06709536px;stroke-linecap:butt;stroke-linejoin:miter;stroke-opacity:1" />
            <path
               inkscape:connector-curvature="0"
               style="fill:#b3b3b3;stroke:none;stroke-width:0.06709536px;stroke-linecap:butt;stroke-linejoin:miter;stroke-opacity:1"
               d="m 298.90089,-1049.2034 0.73403,-0.303 c 2.15551,0.3272 4.21471,0.3275 6.17132,-0.021 l 0.82287,0.3259 c -2.25453,0.4837 -4.98382,0.4763 -7.72822,0 z"
               id="path4488" />
          </g>
          <path
             inkscape:connector-curvature="0"
             id="path4492"
             d="m 298.90614,-1049.1894 -0.7165,1.1356 h 9.02207 l -0.57818,-1.1253 c -2.93392,0.4757 -4.81913,0.46 -7.72742,-0.01 z"
             style="fill:#4d4d4d;stroke:none;stroke-width:0.06709536px;stroke-linecap:butt;stroke-linejoin:miter;stroke-opacity:1" />
        </g>
        <g
           id="g4538"
           transform="translate(2.3661444,-23.262632)">
          <path
             inkscape:connector-curvature="0"
             id="path4496"
             d="m 213.91845,-1049.1894 -0.7165,1.1356 h 9.02207 l -0.57818,-1.1253 c -2.93392,0.4757 -4.81913,0.46 -7.72742,-0.01 z"
             style="fill:#4d4d4d;stroke:none;stroke-width:0.06709536px;stroke-linecap:butt;stroke-linejoin:miter;stroke-opacity:1" />
          <path
             inkscape:connector-curvature="0"
             style="fill:#4d4d4d;stroke:none;stroke-width:0.06709536px;stroke-linecap:butt;stroke-linejoin:miter;stroke-opacity:1"
             d="m 223.36153,-1049.1894 -0.7165,1.1356 h 9.02207 l -0.57818,-1.1253 c -2.93392,0.4757 -4.81913,0.46 -7.72742,-0.01 z"
             id="path4498" />
          <path
             inkscape:connector-curvature="0"
             style="fill:#4d4d4d"
             d="m 232.8046,-1049.1894 -0.7165,1.1356 h 9.02207 l -0.57818,-1.1253 c -2.93392,0.4757 -4.81913,0.46 -7.72742,-0.01 z"
             id="path4500" />
          <path
             inkscape:connector-curvature="0"
             id="path4502"
             d="m 242.24769,-1049.1894 -0.7165,1.1356 h 9.02207 l -0.57818,-1.1253 c -2.93392,0.4757 -4.81913,0.46 -7.72742,-0.01 z"
             style="fill:#4d4d4d;stroke:none;stroke-width:0.06709536px;stroke-linecap:butt;stroke-linejoin:miter;stroke-opacity:1" />
          <path
             inkscape:connector-curvature="0"
             id="path4504"
             d="m 251.69076,-1049.1894 -0.7165,1.1356 h 9.02207 l -0.57818,-1.1253 c -2.93392,0.4757 -4.81913,0.46 -7.72742,-0.01 z"
             style="fill:#4d4d4d;stroke:none;stroke-width:0.06709536px;stroke-linecap:butt;stroke-linejoin:miter;stroke-opacity:1" />
          <path
             inkscape:connector-curvature="0"
             style="fill:#4d4d4d;stroke:none;stroke-width:0.06709536px;stroke-linecap:butt;stroke-linejoin:miter;stroke-opacity:1"
             d="m 261.13383,-1049.1894 -0.7165,1.1356 h 9.02207 l -0.57818,-1.1253 c -2.93392,0.4757 -4.81913,0.46 -7.72742,-0.01 z"
             id="path4506" />
          <path
             inkscape:connector-curvature="0"
             style="fill:#4d4d4d;stroke:none;stroke-width:0.06709536px;stroke-linecap:butt;stroke-linejoin:miter;stroke-opacity:1"
             d="m 270.57691,-1049.1894 -0.7165,1.1356 h 9.02207 l -0.57818,-1.1253 c -2.93392,0.4757 -4.81913,0.46 -7.72742,-0.01 z"
             id="path4508" />
          <path
             inkscape:connector-curvature="0"
             id="path4510"
             d="m 280.01998,-1049.1894 -0.7165,1.1356 h 9.02207 l -0.57818,-1.1253 c -2.93392,0.4757 -4.81913,0.46 -7.72742,-0.01 z"
             style="fill:#4d4d4d;stroke:none;stroke-width:0.06709536px;stroke-linecap:butt;stroke-linejoin:miter;stroke-opacity:1" />
          <path
             inkscape:connector-curvature="0"
             id="path4512"
             d="m 289.46307,-1049.1894 -0.7165,1.1356 h 9.02207 l -0.57818,-1.1253 c -2.93392,0.4757 -4.81913,0.46 -7.72742,-0.01 z"
             style="fill:#4d4d4d;stroke:none;stroke-width:0.06709536px;stroke-linecap:butt;stroke-linejoin:miter;stroke-opacity:1" />
          <g
             id="g4534">
            <path
               inkscape:connector-curvature="0"
               style="fill:#b3b3b3;stroke:none;stroke-width:0.06709536px;stroke-linecap:butt;stroke-linejoin:miter;stroke-opacity:1"
               d="m 213.9132,-1049.2034 0.73403,-0.303 c 2.15551,0.3272 4.21471,0.3275 6.17132,-0.021 l 0.82287,0.3259 c -2.25453,0.4837 -4.98382,0.4763 -7.72822,0 z"
               id="path4514" />
            <path
               inkscape:connector-curvature="0"
               id="path4516"
               d="m 223.35628,-1049.2034 0.73403,-0.303 c 2.15551,0.3272 4.21471,0.3275 6.17132,-0.021 l 0.82287,0.3259 c -2.25453,0.4837 -4.98382,0.4763 -7.72822,0 z"
               style="fill:#b3b3b3;stroke:none;stroke-width:0.06709536px;stroke-linecap:butt;stroke-linejoin:miter;stroke-opacity:1" />
            <path
               inkscape:connector-curvature="0"
               id="path4518"
               d="m 232.79935,-1049.2034 0.73403,-0.303 c 2.15551,0.3272 4.21471,0.3275 6.17132,-0.021 l 0.82287,0.3259 c -2.25453,0.4837 -4.98382,0.4763 -7.72822,0 z"
               style="fill:#b3b3b3" />
            <path
               inkscape:connector-curvature="0"
               style="fill:#b3b3b3;stroke:none;stroke-width:0.06709536px;stroke-linecap:butt;stroke-linejoin:miter;stroke-opacity:1"
               d="m 242.24244,-1049.2034 0.73403,-0.303 c 2.15551,0.3272 4.21471,0.3275 6.17132,-0.021 l 0.82287,0.3259 c -2.25453,0.4837 -4.98382,0.4763 -7.72822,0 z"
               id="path4520" />
            <path
               inkscape:connector-curvature="0"
               style="fill:#b3b3b3;stroke:none;stroke-width:0.06709536px;stroke-linecap:butt;stroke-linejoin:miter;stroke-opacity:1"
               d="m 251.68551,-1049.2034 0.73403,-0.303 c 2.15551,0.3272 4.21471,0.3275 6.17132,-0.021 l 0.82287,0.3259 c -2.25453,0.4837 -4.98382,0.4763 -7.72822,0 z"
               id="path4522" />
            <path
               inkscape:connector-curvature="0"
               id="path4524"
               d="m 261.12858,-1049.2034 0.73403,-0.303 c 2.15551,0.3272 4.21471,0.3275 6.17132,-0.021 l 0.82287,0.3259 c -2.25453,0.4837 -4.98382,0.4763 -7.72822,0 z"
               style="fill:#b3b3b3;stroke:none;stroke-width:0.06709536px;stroke-linecap:butt;stroke-linejoin:miter;stroke-opacity:1" />
            <path
               inkscape:connector-curvature="0"
               id="path4526"
               d="m 270.57166,-1049.2034 0.73403,-0.303 c 2.15551,0.3272 4.21471,0.3275 6.17132,-0.021 l 0.82287,0.3259 c -2.25453,0.4837 -4.98382,0.4763 -7.72822,0 z"
               style="fill:#b3b3b3;stroke:none;stroke-width:0.06709536px;stroke-linecap:butt;stroke-linejoin:miter;stroke-opacity:1" />
            <path
               inkscape:connector-curvature="0"
               style="fill:#b3b3b3;stroke:none;stroke-width:0.06709536px;stroke-linecap:butt;stroke-linejoin:miter;stroke-opacity:1"
               d="m 280.01473,-1049.2034 0.73403,-0.303 c 2.15551,0.3272 4.21471,0.3275 6.17132,-0.021 l 0.82287,0.3259 c -2.25453,0.4837 -4.98382,0.4763 -7.72822,0 z"
               id="path4528" />
            <path
               inkscape:connector-curvature="0"
               style="fill:#b3b3b3;stroke:none;stroke-width:0.06709536px;stroke-linecap:butt;stroke-linejoin:miter;stroke-opacity:1"
               d="m 289.45782,-1049.2034 0.73403,-0.303 c 2.15551,0.3272 4.21471,0.3275 6.17132,-0.021 l 0.82287,0.3259 c -2.25453,0.4837 -4.98382,0.4763 -7.72822,0 z"
               id="path4530" />
            <path
               inkscape:connector-curvature="0"
               id="path4532"
               d="m 298.90089,-1049.2034 0.73403,-0.303 c 2.15551,0.3272 4.21471,0.3275 6.17132,-0.021 l 0.82287,0.3259 c -2.25453,0.4837 -4.98382,0.4763 -7.72822,0 z"
               style="fill:#b3b3b3;stroke:none;stroke-width:0.06709536px;stroke-linecap:butt;stroke-linejoin:miter;stroke-opacity:1" />
          </g>
          <path
             inkscape:connector-curvature="0"
             style="fill:#4d4d4d;stroke:none;stroke-width:0.06709536px;stroke-linecap:butt;stroke-linejoin:miter;stroke-opacity:1"
             d="m 298.90614,-1049.1894 -0.7165,1.1356 h 9.02207 l -0.57818,-1.1253 c -2.93392,0.4757 -4.81913,0.46 -7.72742,-0.01 z"
             id="path4536" />
        </g>
      </g>
      <path
         inkscape:connector-curvature="0"
         id="rect6103"
         d="m 56.389321,-1075.8972 c 3.659746,-0.5126 6.483438,-0.8404 9.85573,-0.1415 0.348947,1.9393 -0.07776,3.6304 -0.826823,5.2183 -2.185091,0.2594 -4.449409,0.3689 -7.027996,-0.1158 -1.073371,-1.4453 -1.907132,-2.9199 -2.000911,-4.961 z"
         style="opacity:1;vector-effect:none;fill:#808080;fill-opacity:1;fill-rule:nonzero;stroke:none;stroke-width:0.27580661;stroke-opacity:1" />
      <path
         inkscape:connector-curvature="0"
         style="opacity:1;vector-effect:none;fill:#808080;fill-opacity:1;fill-rule:nonzero;stroke:none;stroke-width:0.27580661;stroke-opacity:1"
         d="m 53.437025,-1075.8972 c -3.659746,-0.5126 -6.483438,-0.8404 -9.85573,-0.1415 -0.348947,1.9393 0.07776,3.6304 0.826823,5.2183 2.185091,0.2594 4.449409,0.3689 7.027996,-0.1158 1.073371,-1.4453 1.907132,-2.9199 2.000911,-4.961 z"
         id="path6108" />
      <g
         transform="matrix(0.79796866,0,0,0.79796866,-26.106807,-215.06351)"
         id="g4919">
        <rect
           style="opacity:1;vector-effect:none;fill:#b3b3b3;fill-opacity:1;fill-rule:nonzero;stroke:none;stroke-width:0.28076559;stroke-opacity:1"
           id="rect4913"
           width="2.0112016"
           height="5.8988395"
           x="-466.75519"
           y="-1214.4139"
           transform="matrix(1,0,-0.45974793,0.88804946,0,0)" />
        <rect
           transform="matrix(1,0,-0.45974793,0.88804946,0,0)"
           y="-1214.4139"
           x="-463.08411"
           height="5.8988395"
           width="2.0112016"
           id="rect4915"
           style="opacity:1;vector-effect:none;fill:#b3b3b3;fill-opacity:1;fill-rule:nonzero;stroke:none;stroke-width:0.28076559;stroke-opacity:1" />
      </g>
      <g
         id="g6114"
         transform="matrix(0.79796866,0,0,0.79796866,-12.315401,-215.06351)">
        <rect
           transform="matrix(1,0,-0.45974793,0.88804946,0,0)"
           y="-1214.4139"
           x="-466.75519"
           height="5.8988395"
           width="2.0112016"
           id="rect6110"
           style="opacity:1;vector-effect:none;fill:#b3b3b3;fill-opacity:1;fill-rule:nonzero;stroke:none;stroke-width:0.28076559;stroke-opacity:1" />
        <rect
           style="opacity:1;vector-effect:none;fill:#b3b3b3;fill-opacity:1;fill-rule:nonzero;stroke:none;stroke-width:0.28076559;stroke-opacity:1"
           id="rect6112"
           width="2.0112016"
           height="5.8988395"
           x="-463.08411"
           y="-1214.4139"
           transform="matrix(1,0,-0.45974793,0.88804946,0,0)" />
      </g>
    </g>
  </g>
  <g
     style="filter:url(#filter4025)"
     id="g36"
     transform="matrix(0.08396281,0,0,0.08396281,561.89437,-136.1026)"
     inkscape:export-filename="C:\Users\stepan\Documents\GitHub\SMC_Spring_2019_WD3\week_10\img\mousehand.png"
     inkscape:export-xdpi="150"
     inkscape:export-ydpi="150">
    <path
       inkscape:connector-curvature="0"
       style="opacity:0.25;fill:#241c1c;fill-rule:evenodd"
       id="path2"
       d="m -6921.887,2175.608 c -42.924,-46.627 -13.93,-101.142 61.229,-131.337 80.595,-32.379 185.907,-18.985 216.578,37.144 27.896,51.053 10.656,123.58 -61.06,131.7 -84.345,9.552 -176.276,19.518 -216.74,-37.499 -0.01,0 -0.01,0 -0.01,-0.01 z" />
    <path
       inkscape:connector-curvature="0"
       style="fill:#e9afaf"
       id="path4"
       d="m -6600.596,2091.242 c -11.152,-14.52 -15.815,-27 -45.357,-42.492 -15.18,-6.25 -22.307,-58.583 -52.16,-83.468 l -99.028,-59.565 c -14.808,12.008 -38.54,3.474 -64.633,0.38 -26.56,5.116 -48.86,17.383 -69.925,26.178 -18.398,19.732 -40.798,43.481 -61.987,66.015 -5.88,37.51 -5.016,70.83 10.205,95.229 l 140.983,-72.465 56.696,0.758 97.894,66.016 74.839,36.801 c 4.385,0.523 4.127,-0.125 12.473,-33.387 z" />
    <path
       inkscape:connector-curvature="0"
       style="fill:#800000"
       id="path6"
       d="m -6876.54,2028.612 24.648,-74.083 c 13.048,-6.868 21.272,-18.137 55.096,-6.048 l 13.05,72.571 -23.2,19.655 z" />
    <path
       inkscape:connector-curvature="0"
       style="fill:#241c1c;fill-rule:evenodd"
       id="path8"
       d="m -6978.115,2171.849 c -42.924,-46.628 -13.93,-101.143 61.228,-131.338 80.596,-32.378 185.908,-18.985 216.578,37.145 27.897,51.052 10.657,123.58 -61.059,131.7 -84.346,9.551 -176.277,19.517 -216.74,-37.5 -0.01,0 -0.01,0 -0.01,-0.01 z" />
    <path
       inkscape:connector-curvature="0"
       style="fill:#e19494;fill-rule:evenodd"
       id="path10"
       d="m -6803.153,1906.114 c 3.136,-23.496 82.394,-23.929 85.755,28.45 3.157,49.222 19.38,123.152 6.969,155.677 -13.137,34.427 -70.358,35.05 -77.313,-20.585 m -78.594,-70.009 c 20.105,-48.61 33.75,-60.708 10.39,-88.943 -10.806,-13.062 -60.94,-6.605 -81.795,25.677 -26.074,40.36 -8.356,143.04 4.72,176.21 13.586,34.468 72.921,25.261 79.087,-30.67" />
    <path
       inkscape:connector-curvature="0"
       style="fill:#cccccc"
       id="path12"
       d="m -6979.858,2138.86 c 50.593,23.262 321.86,29.983 282.811,-51.149 10.463,20.09 22.94,69.16 -12.829,78.973 -81.329,14.848 -216.102,17.492 -278.481,-2.592 z" />
    <path
       inkscape:connector-curvature="0"
       style="fill:#e19494;fill-rule:evenodd"
       id="path14"
       d="m -6712.525,2106.258 a 68.575,45.162 -36.863 0 1 81.489,-51.893 68.575,45.162 -36.863 0 1 29.115,57.463 68.575,45.162 -36.863 0 1 -81.485,51.902 68.575,45.162 -36.863 0 1 -29.127,-57.456" />
    <rect
       style="fill:#808080"
       id="rect16"
       rx="129.58469"
       ry="129.58469"
       y="2042.656"
       x="-6844.707"
       height="75.332001"
       width="39.556" />
    <rect
       style="fill:#c8b7b7"
       id="rect18"
       width="32.071999"
       height="64.144997"
       x="-6840.9648"
       y="2046.359"
       ry="129.58469"
       rx="129.58469" />
    <path
       inkscape:connector-curvature="0"
       style="fill:#d35f5f;fill-rule:evenodd"
       id="path20"
       d="m -6913.159,2131.04 a 39.528,29.242 -29.911 0 1 -9.8,-40.97 39.528,29.242 -29.911 0 1 51.736,-19.582 39.528,29.242 -29.911 0 1 9.809,40.967 39.528,29.242 -29.911 0 1 -51.736,19.588" />
    <path
       inkscape:connector-curvature="0"
       style="fill:#eab3b3"
       id="path22"
       d="m -6926.746,2064.055 c 8.824,-10.169 20.012,-15.137 33.011,-17.432 10.678,-1.886 9.175,10.477 14.596,15.889 l 1,0.998 c 10.165,10.147 15.288,19.768 7.761,24.488 l -36.753,23.044 c -7.526,4.72 -20.893,15.476 -22.614,1.217 l -2.604,-21.578 c -1.721,-14.26 -0.22,-19.916 5.603,-26.626 z" />
    <path
       inkscape:connector-curvature="0"
       style="fill:#d35f5f;fill-rule:evenodd"
       id="path24"
       d="m -6673.66,2154.915 a 25.15,33.997 -6.95 0 1 -35.735,-5.984 25.15,33.997 -6.95 0 1 1.852,-47.544 25.15,33.997 -6.95 0 1 35.734,5.978 25.15,33.997 -6.95 0 1 -1.847,47.544 m -87.674,-44.425 a 32.66,22.085 -14.947 0 1 -2.424,-31.425 32.66,22.085 -14.947 0 1 45.28,-8.056 32.66,22.085 -14.947 0 1 2.429,31.424 32.66,22.085 -14.947 0 1 -45.28,8.06" />
    <path
       inkscape:connector-curvature="0"
       style="fill:#eab3b3"
       id="path26"
       d="m -6774.36,2082.106 -1.93,-24.777 c -0.745,-9.577 11.268,-17.84 26.936,-18.528 15.668,-0.689 28.881,6.467 29.627,16.043 l 1.929,24.777 c 0.745,9.577 -11.268,17.84 -26.936,18.529 -15.668,0.688 -28.881,-6.468 -29.627,-16.044 z m 103.457,7.544 c 5.578,5.409 13.363,14.82 13.363,23.119 v 15.788 c 0,12.846 -4.965,24.589 -12.294,24.589 -7.329,0 -1.497,-13.495 -5.746,-26.593 l -8.285,-25.544 c -4.249,-13.099 7.7,-16.461 12.962,-11.36 z" />
    <path
       inkscape:connector-curvature="0"
       style="fill:#e19494;fill-rule:evenodd"
       id="path28"
       d="m -6961.055,2009.187 c -2.603,-22.774 -61.743,-22.574 -78.53,24.37 -16.778,46.921 -24.903,129.9 -10.872,161.634 14.032,31.733 61.688,19.874 67.46,-34.051" />
    <path
       inkscape:connector-curvature="0"
       style="fill:#d35f5f;fill-rule:evenodd"
       id="path30"
       d="m -7036.014,2209.096 a 37.317,28.506 -51.996 0 1 -8.458,-43.694 37.317,28.506 -51.996 0 1 44.645,-20.884 37.317,28.506 -51.996 0 1 8.464,43.691 37.317,28.506 -51.996 0 1 -44.644,20.89" />
    <path
       inkscape:connector-curvature="0"
       style="fill:#eab3b3"
       id="path32"
       d="m -7020.28,2164.428 12.125,-7.524 c 7.788,-4.834 6.341,-25.705 -5.86,-26.462 -7.925,-0.491 -24.959,4.134 -29.307,11.708 l -10.612,18.486 c 2.414,9.558 -4.157,28.368 5.103,32.132 2,0.46 14.747,-23.861 28.552,-28.34 z" />
    <path
       inkscape:connector-curvature="0"
       style="fill:#f4d7d7"
       id="path34"
       d="m -6895.158,2049.424 c 3.223,-1.434 6.238,0.163 6.274,0.23 6.351,11.693 11.957,19.027 15.492,30.72 0.032,0.105 -7.087,12.904 -12.703,11.441 -3.356,-0.874 -3.758,-1.832 -3.78,-1.906 l -10.645,-35.08 c -0.023,-0.075 2.139,-3.972 5.362,-5.405 z m -124.328,84.384 c 2.083,-0.696 4.032,0.079 4.055,0.111 4.104,5.675 7.726,9.235 10.01,14.91 0.022,0.051 -4.579,6.263 -8.208,5.553 -2.169,-0.425 -2.429,-0.89 -2.443,-0.925 l -6.879,-17.026 c -0.015,-0.036 1.382,-1.928 3.465,-2.623 z m 289.282,-88.745 c -3.513,-0.319 -5.853,2.165 -5.866,2.239 -2.244,13.116 -5.188,21.865 -4.766,34.074 0,0.11 10.867,9.932 15.711,6.738 2.896,-1.91 2.968,-2.946 2.965,-3.024 l -1.227,-36.639 c 0,-0.078 -3.304,-3.07 -6.817,-3.388 z" />
  </g>
</svg>
