<?xml version="1.0" encoding="UTF-8" standalone="no"?>
<svg
   xmlns:dc="http://purl.org/dc/elements/1.1/"
   xmlns:cc="http://creativecommons.org/ns#"
   xmlns:rdf="http://www.w3.org/1999/02/22-rdf-syntax-ns#"
   xmlns:svg="http://www.w3.org/2000/svg"
   xmlns="http://www.w3.org/2000/svg"
   xmlns:sodipodi="http://sodipodi.sourceforge.net/DTD/sodipodi-0.dtd"
   xmlns:inkscape="http://www.inkscape.org/namespaces/inkscape"
   id="svg6511"
   version="1.1"
   viewBox="0 0 47 39"
   height="39mm"
   width="47mm"
   sodipodi:docname="meAtable.svg"
   inkscape:version="0.92.3 (2405546, 2018-03-11)">
  <sodipodi:namedview
     pagecolor="#ffffff"
     bordercolor="#666666"
     borderopacity="1"
     objecttolerance="10"
     gridtolerance="10"
     guidetolerance="10"
     inkscape:pageopacity="0"
     inkscape:pageshadow="2"
     inkscape:window-width="2866"
     inkscape:window-height="1671"
     id="namedview130"
     showgrid="false"
     inkscape:zoom="0.80053419"
     inkscape:cx="-161.76973"
     inkscape:cy="31.173131"
     inkscape:window-x="377"
     inkscape:window-y="643"
     inkscape:window-maximized="0"
     inkscape:current-layer="svg6511" />
  <defs
     id="defs6505" />
  <metadata
     id="metadata6508">
    <rdf:RDF>
      <cc:Work
         rdf:about="">
        <dc:format>image/svg+xml</dc:format>
        <dc:type
           rdf:resource="http://purl.org/dc/dcmitype/StillImage" />
        <dc:title />
      </cc:Work>
    </rdf:RDF>
  </metadata>
  <g
     id="g4612"
     transform="matrix(0.5864923,-0.00684051,0.00684051,0.5864923,-25.998166,636.04362)">
    <g
       transform="translate(-3.0364356,-20.355532)"
       id="g4421">
      <path
         id="path6404"
         d="m 206.084,-1047.187 h 119.4045 c 1.88939,1.4136 2.35617,2.8538 0,3.9843 H 206.084 c -1.9495,-1.8155 -0.77113,-2.849 0,-3.9843 z"
         style="opacity:1;vector-effect:none;fill:#333333;fill-opacity:1;fill-rule:nonzero;stroke:none;stroke-width:1.40492022;stroke-linecap:round;stroke-linejoin:round;stroke-miterlimit:4;stroke-dasharray:none;stroke-dashoffset:0;stroke-opacity:1"
         inkscape:connector-curvature="0" />
      <path
         style="opacity:1;fill:#cccccc;fill-opacity:1;stroke:none;stroke-width:1.4050957;stroke-linecap:butt;stroke-linejoin:round;stroke-miterlimit:4;stroke-dasharray:none;stroke-opacity:1"
         d="m 220.23193,-1052.4345 -14.27968,5.2475 H 325.4885 l -14.27968,-5.2475 z"
         id="path6406"
         inkscape:connector-curvature="0" />
    </g>
    <g
       transform="matrix(1.6102804,0,0,1.6102804,-192.46326,621.14488)"
       id="g4450">
      <path
         id="path6408"
         d="m 311.0767,-1049.6811 0.41668,-0.6563 3.1084,-0.027 0.3675,0.6861 z"
         style="fill:#b3b3b3;stroke:none;stroke-width:0.05425382px;stroke-linecap:butt;stroke-linejoin:miter;stroke-opacity:1"
         inkscape:connector-curvature="0" />
      <path
         id="path6410"
         d="m 311.07934,-1049.6629 -0.0134,0.5911 h 3.90554 v -0.5778 z"
         style="fill:#4d4d4d;stroke:none;stroke-width:0.05425382px;stroke-linecap:butt;stroke-linejoin:miter;stroke-opacity:1"
         inkscape:connector-curvature="0" />
    </g>
    <g
       transform="translate(-5.6798393,-20.237019)"
       id="g4444">
      <path
         style="fill:#4d4d4d;stroke:none;stroke-width:0.06709536px;stroke-linecap:butt;stroke-linejoin:miter;stroke-opacity:1"
         d="m 213.91845,-1049.1894 -0.7165,1.1356 h 9.02207 l -0.57818,-1.1253 c -2.93392,0.4757 -4.81913,0.46 -7.72742,-0.01 z"
         id="path6540"
         inkscape:connector-curvature="0" />
      <path
         id="path6546"
         d="m 223.36153,-1049.1894 -0.7165,1.1356 h 9.02207 l -0.57818,-1.1253 c -2.93392,0.4757 -4.81913,0.46 -7.72742,-0.01 z"
         style="fill:#4d4d4d;stroke:none;stroke-width:0.06709536px;stroke-linecap:butt;stroke-linejoin:miter;stroke-opacity:1"
         inkscape:connector-curvature="0" />
      <path
         id="path6552"
         d="m 232.8046,-1049.1894 -0.7165,1.1356 h 9.02207 l -0.57818,-1.1253 c -2.93392,0.4757 -4.81913,0.46 -7.72742,-0.01 z"
         style="fill:#4d4d4d"
         inkscape:connector-curvature="0" />
      <path
         style="fill:#4d4d4d;stroke:none;stroke-width:0.06709536px;stroke-linecap:butt;stroke-linejoin:miter;stroke-opacity:1"
         d="m 242.24769,-1049.1894 -0.7165,1.1356 h 9.02207 l -0.57818,-1.1253 c -2.93392,0.4757 -4.81913,0.46 -7.72742,-0.01 z"
         id="path6558"
         inkscape:connector-curvature="0" />
      <path
         style="fill:#4d4d4d;stroke:none;stroke-width:0.06709536px;stroke-linecap:butt;stroke-linejoin:miter;stroke-opacity:1"
         d="m 251.69076,-1049.1894 -0.7165,1.1356 h 9.02207 l -0.57818,-1.1253 c -2.93392,0.4757 -4.81913,0.46 -7.72742,-0.01 z"
         id="path6564"
         inkscape:connector-curvature="0" />
      <path
         id="path6570"
         d="m 261.13383,-1049.1894 -0.7165,1.1356 h 9.02207 l -0.57818,-1.1253 c -2.93392,0.4757 -4.81913,0.46 -7.72742,-0.01 z"
         style="fill:#4d4d4d;stroke:none;stroke-width:0.06709536px;stroke-linecap:butt;stroke-linejoin:miter;stroke-opacity:1"
         inkscape:connector-curvature="0" />
      <path
         id="path6576"
         d="m 270.57691,-1049.1894 -0.7165,1.1356 h 9.02207 l -0.57818,-1.1253 c -2.93392,0.4757 -4.81913,0.46 -7.72742,-0.01 z"
         style="fill:#4d4d4d;stroke:none;stroke-width:0.06709536px;stroke-linecap:butt;stroke-linejoin:miter;stroke-opacity:1"
         inkscape:connector-curvature="0" />
      <path
         style="fill:#4d4d4d;stroke:none;stroke-width:0.06709536px;stroke-linecap:butt;stroke-linejoin:miter;stroke-opacity:1"
         d="m 280.01998,-1049.1894 -0.7165,1.1356 h 9.02207 l -0.57818,-1.1253 c -2.93392,0.4757 -4.81913,0.46 -7.72742,-0.01 z"
         id="path6582"
         inkscape:connector-curvature="0" />
      <path
         style="fill:#4d4d4d;stroke:none;stroke-width:0.06709536px;stroke-linecap:butt;stroke-linejoin:miter;stroke-opacity:1"
         d="m 289.46307,-1049.1894 -0.7165,1.1356 h 9.02207 l -0.57818,-1.1253 c -2.93392,0.4757 -4.81913,0.46 -7.72742,-0.01 z"
         id="path6588"
         inkscape:connector-curvature="0" />
      <g
         id="g4417">
        <path
           id="path6538"
           d="m 213.9132,-1049.2034 0.73403,-0.303 c 2.15551,0.3272 4.21471,0.3275 6.17132,-0.021 l 0.82287,0.3259 c -2.25453,0.4837 -4.98382,0.4763 -7.72822,0 z"
           style="fill:#b3b3b3;stroke:none;stroke-width:0.06709536px;stroke-linecap:butt;stroke-linejoin:miter;stroke-opacity:1"
           inkscape:connector-curvature="0" />
        <path
           style="fill:#b3b3b3;stroke:none;stroke-width:0.06709536px;stroke-linecap:butt;stroke-linejoin:miter;stroke-opacity:1"
           d="m 223.35628,-1049.2034 0.73403,-0.303 c 2.15551,0.3272 4.21471,0.3275 6.17132,-0.021 l 0.82287,0.3259 c -2.25453,0.4837 -4.98382,0.4763 -7.72822,0 z"
           id="path6544"
           inkscape:connector-curvature="0" />
        <path
           style="fill:#b3b3b3"
           d="m 232.79935,-1049.2034 0.73403,-0.303 c 2.15551,0.3272 4.21471,0.3275 6.17132,-0.021 l 0.82287,0.3259 c -2.25453,0.4837 -4.98382,0.4763 -7.72822,0 z"
           id="path6550"
           inkscape:connector-curvature="0" />
        <path
           id="path6556"
           d="m 242.24244,-1049.2034 0.73403,-0.303 c 2.15551,0.3272 4.21471,0.3275 6.17132,-0.021 l 0.82287,0.3259 c -2.25453,0.4837 -4.98382,0.4763 -7.72822,0 z"
           style="fill:#b3b3b3;stroke:none;stroke-width:0.06709536px;stroke-linecap:butt;stroke-linejoin:miter;stroke-opacity:1"
           inkscape:connector-curvature="0" />
        <path
           id="path6562"
           d="m 251.68551,-1049.2034 0.73403,-0.303 c 2.15551,0.3272 4.21471,0.3275 6.17132,-0.021 l 0.82287,0.3259 c -2.25453,0.4837 -4.98382,0.4763 -7.72822,0 z"
           style="fill:#b3b3b3;stroke:none;stroke-width:0.06709536px;stroke-linecap:butt;stroke-linejoin:miter;stroke-opacity:1"
           inkscape:connector-curvature="0" />
        <path
           style="fill:#b3b3b3;stroke:none;stroke-width:0.06709536px;stroke-linecap:butt;stroke-linejoin:miter;stroke-opacity:1"
           d="m 261.12858,-1049.2034 0.73403,-0.303 c 2.15551,0.3272 4.21471,0.3275 6.17132,-0.021 l 0.82287,0.3259 c -2.25453,0.4837 -4.98382,0.4763 -7.72822,0 z"
           id="path6568"
           inkscape:connector-curvature="0" />
        <path
           style="fill:#b3b3b3;stroke:none;stroke-width:0.06709536px;stroke-linecap:butt;stroke-linejoin:miter;stroke-opacity:1"
           d="m 270.57166,-1049.2034 0.73403,-0.303 c 2.15551,0.3272 4.21471,0.3275 6.17132,-0.021 l 0.82287,0.3259 c -2.25453,0.4837 -4.98382,0.4763 -7.72822,0 z"
           id="path6574"
           inkscape:connector-curvature="0" />
        <path
           id="path6580"
           d="m 280.01473,-1049.2034 0.73403,-0.303 c 2.15551,0.3272 4.21471,0.3275 6.17132,-0.021 l 0.82287,0.3259 c -2.25453,0.4837 -4.98382,0.4763 -7.72822,0 z"
           style="fill:#b3b3b3;stroke:none;stroke-width:0.06709536px;stroke-linecap:butt;stroke-linejoin:miter;stroke-opacity:1"
           inkscape:connector-curvature="0" />
        <path
           id="path6586"
           d="m 289.45782,-1049.2034 0.73403,-0.303 c 2.15551,0.3272 4.21471,0.3275 6.17132,-0.021 l 0.82287,0.3259 c -2.25453,0.4837 -4.98382,0.4763 -7.72822,0 z"
           style="fill:#b3b3b3;stroke:none;stroke-width:0.06709536px;stroke-linecap:butt;stroke-linejoin:miter;stroke-opacity:1"
           inkscape:connector-curvature="0" />
        <path
           style="fill:#b3b3b3;stroke:none;stroke-width:0.06709536px;stroke-linecap:butt;stroke-linejoin:miter;stroke-opacity:1"
           d="m 298.90089,-1049.2034 0.73403,-0.303 c 2.15551,0.3272 4.21471,0.3275 6.17132,-0.021 l 0.82287,0.3259 c -2.25453,0.4837 -4.98382,0.4763 -7.72822,0 z"
           id="path6592"
           inkscape:connector-curvature="0" />
      </g>
      <path
         id="path6594"
         d="m 298.90614,-1049.1894 -0.7165,1.1356 h 9.02207 l -0.57818,-1.1253 c -2.93392,0.4757 -4.81913,0.46 -7.72742,-0.01 z"
         style="fill:#4d4d4d;stroke:none;stroke-width:0.06709536px;stroke-linecap:butt;stroke-linejoin:miter;stroke-opacity:1"
         inkscape:connector-curvature="0" />
    </g>
    <g
       id="g4494"
       transform="translate(-1.3416718,-21.801977)">
      <path
         id="path4452"
         d="m 213.91845,-1049.1894 -0.7165,1.1356 h 9.02207 l -0.57818,-1.1253 c -2.93392,0.4757 -4.81913,0.46 -7.72742,-0.01 z"
         style="fill:#4d4d4d;stroke:none;stroke-width:0.06709536px;stroke-linecap:butt;stroke-linejoin:miter;stroke-opacity:1"
         inkscape:connector-curvature="0" />
      <path
         style="fill:#4d4d4d;stroke:none;stroke-width:0.06709536px;stroke-linecap:butt;stroke-linejoin:miter;stroke-opacity:1"
         d="m 223.36153,-1049.1894 -0.7165,1.1356 h 9.02207 l -0.57818,-1.1253 c -2.93392,0.4757 -4.81913,0.46 -7.72742,-0.01 z"
         id="path4454"
         inkscape:connector-curvature="0" />
      <path
         style="fill:#4d4d4d"
         d="m 232.8046,-1049.1894 -0.7165,1.1356 h 9.02207 l -0.57818,-1.1253 c -2.93392,0.4757 -4.81913,0.46 -7.72742,-0.01 z"
         id="path4456"
         inkscape:connector-curvature="0" />
      <path
         id="path4458"
         d="m 242.24769,-1049.1894 -0.7165,1.1356 h 9.02207 l -0.57818,-1.1253 c -2.93392,0.4757 -4.81913,0.46 -7.72742,-0.01 z"
         style="fill:#4d4d4d;stroke:none;stroke-width:0.06709536px;stroke-linecap:butt;stroke-linejoin:miter;stroke-opacity:1"
         inkscape:connector-curvature="0" />
      <path
         id="path4460"
         d="m 251.69076,-1049.1894 -0.7165,1.1356 h 9.02207 l -0.57818,-1.1253 c -2.93392,0.4757 -4.81913,0.46 -7.72742,-0.01 z"
         style="fill:#4d4d4d;stroke:none;stroke-width:0.06709536px;stroke-linecap:butt;stroke-linejoin:miter;stroke-opacity:1"
         inkscape:connector-curvature="0" />
      <path
         style="fill:#4d4d4d;stroke:none;stroke-width:0.06709536px;stroke-linecap:butt;stroke-linejoin:miter;stroke-opacity:1"
         d="m 261.13383,-1049.1894 -0.7165,1.1356 h 9.02207 l -0.57818,-1.1253 c -2.93392,0.4757 -4.81913,0.46 -7.72742,-0.01 z"
         id="path4462"
         inkscape:connector-curvature="0" />
      <path
         style="fill:#4d4d4d;stroke:none;stroke-width:0.06709536px;stroke-linecap:butt;stroke-linejoin:miter;stroke-opacity:1"
         d="m 270.57691,-1049.1894 -0.7165,1.1356 h 9.02207 l -0.57818,-1.1253 c -2.93392,0.4757 -4.81913,0.46 -7.72742,-0.01 z"
         id="path4464"
         inkscape:connector-curvature="0" />
      <path
         id="path4466"
         d="m 280.01998,-1049.1894 -0.7165,1.1356 h 9.02207 l -0.57818,-1.1253 c -2.93392,0.4757 -4.81913,0.46 -7.72742,-0.01 z"
         style="fill:#4d4d4d;stroke:none;stroke-width:0.06709536px;stroke-linecap:butt;stroke-linejoin:miter;stroke-opacity:1"
         inkscape:connector-curvature="0" />
      <path
         id="path4468"
         d="m 289.46307,-1049.1894 -0.7165,1.1356 h 9.02207 l -0.57818,-1.1253 c -2.93392,0.4757 -4.81913,0.46 -7.72742,-0.01 z"
         style="fill:#4d4d4d;stroke:none;stroke-width:0.06709536px;stroke-linecap:butt;stroke-linejoin:miter;stroke-opacity:1"
         inkscape:connector-curvature="0" />
      <g
         id="g4490">
        <path
           style="fill:#b3b3b3;stroke:none;stroke-width:0.06709536px;stroke-linecap:butt;stroke-linejoin:miter;stroke-opacity:1"
           d="m 213.9132,-1049.2034 0.73403,-0.303 c 2.15551,0.3272 4.21471,0.3275 6.17132,-0.021 l 0.82287,0.3259 c -2.25453,0.4837 -4.98382,0.4763 -7.72822,0 z"
           id="path4470"
           inkscape:connector-curvature="0" />
        <path
           id="path4472"
           d="m 223.35628,-1049.2034 0.73403,-0.303 c 2.15551,0.3272 4.21471,0.3275 6.17132,-0.021 l 0.82287,0.3259 c -2.25453,0.4837 -4.98382,0.4763 -7.72822,0 z"
           style="fill:#b3b3b3;stroke:none;stroke-width:0.06709536px;stroke-linecap:butt;stroke-linejoin:miter;stroke-opacity:1"
           inkscape:connector-curvature="0" />
        <path
           id="path4474"
           d="m 232.79935,-1049.2034 0.73403,-0.303 c 2.15551,0.3272 4.21471,0.3275 6.17132,-0.021 l 0.82287,0.3259 c -2.25453,0.4837 -4.98382,0.4763 -7.72822,0 z"
           style="fill:#b3b3b3"
           inkscape:connector-curvature="0" />
        <path
           style="fill:#b3b3b3;stroke:none;stroke-width:0.06709536px;stroke-linecap:butt;stroke-linejoin:miter;stroke-opacity:1"
           d="m 242.24244,-1049.2034 0.73403,-0.303 c 2.15551,0.3272 4.21471,0.3275 6.17132,-0.021 l 0.82287,0.3259 c -2.25453,0.4837 -4.98382,0.4763 -7.72822,0 z"
           id="path4476"
           inkscape:connector-curvature="0" />
        <path
           style="fill:#b3b3b3;stroke:none;stroke-width:0.06709536px;stroke-linecap:butt;stroke-linejoin:miter;stroke-opacity:1"
           d="m 251.68551,-1049.2034 0.73403,-0.303 c 2.15551,0.3272 4.21471,0.3275 6.17132,-0.021 l 0.82287,0.3259 c -2.25453,0.4837 -4.98382,0.4763 -7.72822,0 z"
           id="path4478"
           inkscape:connector-curvature="0" />
        <path
           id="path4480"
           d="m 261.12858,-1049.2034 0.73403,-0.303 c 2.15551,0.3272 4.21471,0.3275 6.17132,-0.021 l 0.82287,0.3259 c -2.25453,0.4837 -4.98382,0.4763 -7.72822,0 z"
           style="fill:#b3b3b3;stroke:none;stroke-width:0.06709536px;stroke-linecap:butt;stroke-linejoin:miter;stroke-opacity:1"
           inkscape:connector-curvature="0" />
        <path
           id="path4482"
           d="m 270.57166,-1049.2034 0.73403,-0.303 c 2.15551,0.3272 4.21471,0.3275 6.17132,-0.021 l 0.82287,0.3259 c -2.25453,0.4837 -4.98382,0.4763 -7.72822,0 z"
           style="fill:#b3b3b3;stroke:none;stroke-width:0.06709536px;stroke-linecap:butt;stroke-linejoin:miter;stroke-opacity:1"
           inkscape:connector-curvature="0" />
        <path
           style="fill:#b3b3b3;stroke:none;stroke-width:0.06709536px;stroke-linecap:butt;stroke-linejoin:miter;stroke-opacity:1"
           d="m 280.01473,-1049.2034 0.73403,-0.303 c 2.15551,0.3272 4.21471,0.3275 6.17132,-0.021 l 0.82287,0.3259 c -2.25453,0.4837 -4.98382,0.4763 -7.72822,0 z"
           id="path4484"
           inkscape:connector-curvature="0" />
        <path
           style="fill:#b3b3b3;stroke:none;stroke-width:0.06709536px;stroke-linecap:butt;stroke-linejoin:miter;stroke-opacity:1"
           d="m 289.45782,-1049.2034 0.73403,-0.303 c 2.15551,0.3272 4.21471,0.3275 6.17132,-0.021 l 0.82287,0.3259 c -2.25453,0.4837 -4.98382,0.4763 -7.72822,0 z"
           id="path4486"
           inkscape:connector-curvature="0" />
        <path
           id="path4488"
           d="m 298.90089,-1049.2034 0.73403,-0.303 c 2.15551,0.3272 4.21471,0.3275 6.17132,-0.021 l 0.82287,0.3259 c -2.25453,0.4837 -4.98382,0.4763 -7.72822,0 z"
           style="fill:#b3b3b3;stroke:none;stroke-width:0.06709536px;stroke-linecap:butt;stroke-linejoin:miter;stroke-opacity:1"
           inkscape:connector-curvature="0" />
      </g>
      <path
         style="fill:#4d4d4d;stroke:none;stroke-width:0.06709536px;stroke-linecap:butt;stroke-linejoin:miter;stroke-opacity:1"
         d="m 298.90614,-1049.1894 -0.7165,1.1356 h 9.02207 l -0.57818,-1.1253 c -2.93392,0.4757 -4.81913,0.46 -7.72742,-0.01 z"
         id="path4492"
         inkscape:connector-curvature="0" />
    </g>
    <g
       transform="translate(2.3661444,-23.262632)"
       id="g4538">
      <path
         style="fill:#4d4d4d;stroke:none;stroke-width:0.06709536px;stroke-linecap:butt;stroke-linejoin:miter;stroke-opacity:1"
         d="m 213.91845,-1049.1894 -0.7165,1.1356 h 9.02207 l -0.57818,-1.1253 c -2.93392,0.4757 -4.81913,0.46 -7.72742,-0.01 z"
         id="path4496"
         inkscape:connector-curvature="0" />
      <path
         id="path4498"
         d="m 223.36153,-1049.1894 -0.7165,1.1356 h 9.02207 l -0.57818,-1.1253 c -2.93392,0.4757 -4.81913,0.46 -7.72742,-0.01 z"
         style="fill:#4d4d4d;stroke:none;stroke-width:0.06709536px;stroke-linecap:butt;stroke-linejoin:miter;stroke-opacity:1"
         inkscape:connector-curvature="0" />
      <path
         id="path4500"
         d="m 232.8046,-1049.1894 -0.7165,1.1356 h 9.02207 l -0.57818,-1.1253 c -2.93392,0.4757 -4.81913,0.46 -7.72742,-0.01 z"
         style="fill:#4d4d4d"
         inkscape:connector-curvature="0" />
      <path
         style="fill:#4d4d4d;stroke:none;stroke-width:0.06709536px;stroke-linecap:butt;stroke-linejoin:miter;stroke-opacity:1"
         d="m 242.24769,-1049.1894 -0.7165,1.1356 h 9.02207 l -0.57818,-1.1253 c -2.93392,0.4757 -4.81913,0.46 -7.72742,-0.01 z"
         id="path4502"
         inkscape:connector-curvature="0" />
      <path
         style="fill:#4d4d4d;stroke:none;stroke-width:0.06709536px;stroke-linecap:butt;stroke-linejoin:miter;stroke-opacity:1"
         d="m 251.69076,-1049.1894 -0.7165,1.1356 h 9.02207 l -0.57818,-1.1253 c -2.93392,0.4757 -4.81913,0.46 -7.72742,-0.01 z"
         id="path4504"
         inkscape:connector-curvature="0" />
      <path
         id="path4506"
         d="m 261.13383,-1049.1894 -0.7165,1.1356 h 9.02207 l -0.57818,-1.1253 c -2.93392,0.4757 -4.81913,0.46 -7.72742,-0.01 z"
         style="fill:#4d4d4d;stroke:none;stroke-width:0.06709536px;stroke-linecap:butt;stroke-linejoin:miter;stroke-opacity:1"
         inkscape:connector-curvature="0" />
      <path
         id="path4508"
         d="m 270.57691,-1049.1894 -0.7165,1.1356 h 9.02207 l -0.57818,-1.1253 c -2.93392,0.4757 -4.81913,0.46 -7.72742,-0.01 z"
         style="fill:#4d4d4d;stroke:none;stroke-width:0.06709536px;stroke-linecap:butt;stroke-linejoin:miter;stroke-opacity:1"
         inkscape:connector-curvature="0" />
      <path
         style="fill:#4d4d4d;stroke:none;stroke-width:0.06709536px;stroke-linecap:butt;stroke-linejoin:miter;stroke-opacity:1"
         d="m 280.01998,-1049.1894 -0.7165,1.1356 h 9.02207 l -0.57818,-1.1253 c -2.93392,0.4757 -4.81913,0.46 -7.72742,-0.01 z"
         id="path4510"
         inkscape:connector-curvature="0" />
      <path
         style="fill:#4d4d4d;stroke:none;stroke-width:0.06709536px;stroke-linecap:butt;stroke-linejoin:miter;stroke-opacity:1"
         d="m 289.46307,-1049.1894 -0.7165,1.1356 h 9.02207 l -0.57818,-1.1253 c -2.93392,0.4757 -4.81913,0.46 -7.72742,-0.01 z"
         id="path4512"
         inkscape:connector-curvature="0" />
      <g
         id="g4534">
        <path
           id="path4514"
           d="m 213.9132,-1049.2034 0.73403,-0.303 c 2.15551,0.3272 4.21471,0.3275 6.17132,-0.021 l 0.82287,0.3259 c -2.25453,0.4837 -4.98382,0.4763 -7.72822,0 z"
           style="fill:#b3b3b3;stroke:none;stroke-width:0.06709536px;stroke-linecap:butt;stroke-linejoin:miter;stroke-opacity:1"
           inkscape:connector-curvature="0" />
        <path
           style="fill:#b3b3b3;stroke:none;stroke-width:0.06709536px;stroke-linecap:butt;stroke-linejoin:miter;stroke-opacity:1"
           d="m 223.35628,-1049.2034 0.73403,-0.303 c 2.15551,0.3272 4.21471,0.3275 6.17132,-0.021 l 0.82287,0.3259 c -2.25453,0.4837 -4.98382,0.4763 -7.72822,0 z"
           id="path4516"
           inkscape:connector-curvature="0" />
        <path
           style="fill:#b3b3b3"
           d="m 232.79935,-1049.2034 0.73403,-0.303 c 2.15551,0.3272 4.21471,0.3275 6.17132,-0.021 l 0.82287,0.3259 c -2.25453,0.4837 -4.98382,0.4763 -7.72822,0 z"
           id="path4518"
           inkscape:connector-curvature="0" />
        <path
           id="path4520"
           d="m 242.24244,-1049.2034 0.73403,-0.303 c 2.15551,0.3272 4.21471,0.3275 6.17132,-0.021 l 0.82287,0.3259 c -2.25453,0.4837 -4.98382,0.4763 -7.72822,0 z"
           style="fill:#b3b3b3;stroke:none;stroke-width:0.06709536px;stroke-linecap:butt;stroke-linejoin:miter;stroke-opacity:1"
           inkscape:connector-curvature="0" />
        <path
           id="path4522"
           d="m 251.68551,-1049.2034 0.73403,-0.303 c 2.15551,0.3272 4.21471,0.3275 6.17132,-0.021 l 0.82287,0.3259 c -2.25453,0.4837 -4.98382,0.4763 -7.72822,0 z"
           style="fill:#b3b3b3;stroke:none;stroke-width:0.06709536px;stroke-linecap:butt;stroke-linejoin:miter;stroke-opacity:1"
           inkscape:connector-curvature="0" />
        <path
           style="fill:#b3b3b3;stroke:none;stroke-width:0.06709536px;stroke-linecap:butt;stroke-linejoin:miter;stroke-opacity:1"
           d="m 261.12858,-1049.2034 0.73403,-0.303 c 2.15551,0.3272 4.21471,0.3275 6.17132,-0.021 l 0.82287,0.3259 c -2.25453,0.4837 -4.98382,0.4763 -7.72822,0 z"
           id="path4524"
           inkscape:connector-curvature="0" />
        <path
           style="fill:#b3b3b3;stroke:none;stroke-width:0.06709536px;stroke-linecap:butt;stroke-linejoin:miter;stroke-opacity:1"
           d="m 270.57166,-1049.2034 0.73403,-0.303 c 2.15551,0.3272 4.21471,0.3275 6.17132,-0.021 l 0.82287,0.3259 c -2.25453,0.4837 -4.98382,0.4763 -7.72822,0 z"
           id="path4526"
           inkscape:connector-curvature="0" />
        <path
           id="path4528"
           d="m 280.01473,-1049.2034 0.73403,-0.303 c 2.15551,0.3272 4.21471,0.3275 6.17132,-0.021 l 0.82287,0.3259 c -2.25453,0.4837 -4.98382,0.4763 -7.72822,0 z"
           style="fill:#b3b3b3;stroke:none;stroke-width:0.06709536px;stroke-linecap:butt;stroke-linejoin:miter;stroke-opacity:1"
           inkscape:connector-curvature="0" />
        <path
           id="path4530"
           d="m 289.45782,-1049.2034 0.73403,-0.303 c 2.15551,0.3272 4.21471,0.3275 6.17132,-0.021 l 0.82287,0.3259 c -2.25453,0.4837 -4.98382,0.4763 -7.72822,0 z"
           style="fill:#b3b3b3;stroke:none;stroke-width:0.06709536px;stroke-linecap:butt;stroke-linejoin:miter;stroke-opacity:1"
           inkscape:connector-curvature="0" />
        <path
           style="fill:#b3b3b3;stroke:none;stroke-width:0.06709536px;stroke-linecap:butt;stroke-linejoin:miter;stroke-opacity:1"
           d="m 298.90089,-1049.2034 0.73403,-0.303 c 2.15551,0.3272 4.21471,0.3275 6.17132,-0.021 l 0.82287,0.3259 c -2.25453,0.4837 -4.98382,0.4763 -7.72822,0 z"
           id="path4532"
           inkscape:connector-curvature="0" />
      </g>
      <path
         id="path4536"
         d="m 298.90614,-1049.1894 -0.7165,1.1356 h 9.02207 l -0.57818,-1.1253 c -2.93392,0.4757 -4.81913,0.46 -7.72742,-0.01 z"
         style="fill:#4d4d4d;stroke:none;stroke-width:0.06709536px;stroke-linecap:butt;stroke-linejoin:miter;stroke-opacity:1"
         inkscape:connector-curvature="0" />
    </g>
  </g>
  <g
     id="g5279"
     inkscape:export-xdpi="150"
     inkscape:export-ydpi="150">
    <path
       inkscape:connector-curvature="0"
       d="M -14.581053,36.275866 A 34.744769,34.744769 0 0 1 -1.2364526,-11.012091 34.744769,34.744769 0 0 1 46.052436,2.3291861 34.744769,34.744769 0 0 1 32.714434,49.619031 34.744769,34.744769 0 0 1 -14.576314,36.284297"
       id="path7394"
       style="opacity:1;vector-effect:none;fill:#b3b3b3;fill-opacity:1;fill-rule:evenodd;stroke:none;stroke-width:10.45204258;stroke-linecap:round;stroke-linejoin:miter;stroke-miterlimit:4;stroke-dasharray:none;stroke-dashoffset:0;stroke-opacity:1" />
    <path
       inkscape:connector-curvature="0"
       id="path6231"
       d="m 29.997015,11.85424 v 6.98799 c -1.118063,1.434541 -3.004113,2.524801 -5.02699,3.080069 a 10.308175,5.702226 0 0 0 3.807062,-0.742843 10.308175,5.702226 0 0 0 3.601456,-7.801695 10.308175,5.702226 0 0 0 -2.381528,-1.523521 z m -13.534811,0.271189 a 10.308175,5.702226 0 0 0 -1.862662,7.026104 l 0.06337,0.05923 a 10.308175,5.702226 0 0 0 3.282073,1.86843 c -0.678659,-0.546698 -1.19879,-1.283479 -1.482784,-2.23675 z"
       style="opacity:1;vector-effect:none;fill:#df8a8a;fill-opacity:1;fill-rule:evenodd;stroke:none;stroke-width:0.23165096;stroke-linecap:round;stroke-linejoin:miter;stroke-miterlimit:4;stroke-dasharray:none;stroke-dashoffset:0;stroke-opacity:1" />
    <path
       inkscape:connector-curvature="0"
       id="path6233"
       d="M 15.938025,3.0570479 V 17.072186 c 1.198602,4.023308 6.586295,4.212415 10.46446,2.351999 -3.823128,1.599261 -8.792525,1.254561 -9.937673,-2.589254 V 3.0570479 Z"
       style="opacity:1;vector-effect:none;fill:#d25a5a;fill-opacity:1;fill-rule:nonzero;stroke:none;stroke-width:0.14467429;stroke-linecap:round;stroke-linejoin:round;stroke-miterlimit:4;stroke-dasharray:none;stroke-dashoffset:0;stroke-opacity:1" />
    <path
       inkscape:connector-curvature="0"
       id="path6235"
       d="m 16.442972,4.04495 h 13.534932 v 14.014929 c -3.074892,3.945198 -11.953285,5.309016 -13.534932,0 z"
       style="opacity:1;vector-effect:none;fill:#da7878;fill-opacity:1;fill-rule:nonzero;stroke:none;stroke-width:0.14467429;stroke-linecap:round;stroke-linejoin:round;stroke-miterlimit:4;stroke-dasharray:none;stroke-dashoffset:0;stroke-opacity:1" />
    <g
       transform="matrix(0.69678523,0,0,0.69678523,-91.999382,747.49907)"
       id="g5842">
      <g
         id="g4883"
         transform="translate(-13.946554,8.8383974)"
         style="fill:#808080">
        <path
           inkscape:connector-curvature="0"
           id="path6245"
           d="m 167.75553,-1064.2657 c -9.77631,5.1715 -21.0305,5.4646 -26.60475,14.3947 l -6.15365,11.7534 -0.61537,9.7228 44.94227,0.1227 v 4e-4 l 0.0512,-2e-4 0.0512,2e-4 v -4e-4 l 44.94227,-0.1227 -0.61537,-9.7228 -6.15365,-11.7534 c -5.57424,-8.9301 -16.82849,-9.2232 -26.6048,-14.3947 0.58688,9.269 -5.27867,9.6409 -11.61962,10.2056 -6.34093,-0.5647 -12.20655,-0.9366 -11.61966,-10.2056 z"
           style="fill:#808080;stroke:none;stroke-width:0.33245671;stroke-linecap:butt;stroke-linejoin:miter;stroke-opacity:1" />
      </g>
      <path
         inkscape:connector-curvature="0"
         style="opacity:1;vector-effect:none;fill:#333333;fill-opacity:1;fill-rule:nonzero;stroke:none;stroke-width:0.19557382;stroke-linecap:round;stroke-linejoin:round;stroke-miterlimit:4;stroke-dasharray:none;stroke-dashoffset:0;stroke-opacity:1"
         d="m 165.47375,-1039.8712 c -1.52967,0 -2.76817,1.2301 -2.85202,2.7895 -0.84027,0.037 -1.51504,0.1835 -1.75131,0.3762 -0.22012,0.1275 -0.45278,0.5079 -0.58291,0.9937 -0.17243,0.6435 -0.098,1.2187 0.16691,1.2899 0.26495,0.071 0.61719,-0.3901 0.78962,-1.0336 0.0734,-0.274 0.0995,-0.5326 0.0879,-0.7482 0.32567,0.09 0.77293,0.1529 1.28209,0.1762 v 2.0918 c -0.83656,0.037 -1.50803,0.1831 -1.74356,0.3752 -0.22012,0.1275 -0.45278,0.5081 -0.58291,0.9938 -0.17243,0.6435 -0.098,1.2188 0.16691,1.2898 0.26495,0.071 0.61719,-0.39 0.78962,-1.0335 0.0734,-0.274 0.0995,-0.5327 0.0879,-0.7483 0.32567,0.09 0.77293,0.1534 1.28209,0.1767 v 1.4924 c 0,0.2043 0.0201,0.4035 0.0579,0.5959 -0.86376,0.033 -1.56044,0.1822 -1.80144,0.3788 -0.22012,0.1275 -0.45278,0.508 -0.58291,0.9937 -0.17243,0.6435 -0.098,1.2188 0.16691,1.2898 0.26495,0.071 0.61719,-0.39 0.78962,-1.0335 0.0734,-0.274 0.0995,-0.5327 0.0879,-0.7483 0.41244,0.114 1.01562,0.1876 1.69912,0.1876 0.0257,0 0.0495,0 0.0749,0 0.51349,0.7825 1.3805,1.295 2.36781,1.295 0.98682,0 1.8532,-0.5121 2.36678,-1.294 0.67735,0 1.27523,-0.074 1.68466,-0.1871 -0.0117,0.2156 0.0145,0.4743 0.0879,0.7483 0.17243,0.6435 0.52466,1.1045 0.78961,1.0335 0.26491,-0.071 0.33935,-0.6463 0.16692,-1.2898 -0.13013,-0.4857 -0.36279,-0.8662 -0.58291,-0.9937 -0.2325,-0.1897 -0.89051,-0.3341 -1.71204,-0.3737 0.0384,-0.194 0.0589,-0.3948 0.0589,-0.601 v -1.4955 c 0.47213,-0.026 0.88502,-0.089 1.19166,-0.1736 -0.0117,0.2156 0.0145,0.4743 0.0879,0.7483 0.17243,0.6435 0.52466,1.1045 0.78961,1.0335 0.26491,-0.071 0.33935,-0.6463 0.16692,-1.2898 -0.13013,-0.4857 -0.36279,-0.8663 -0.58291,-0.9938 -0.22684,-0.185 -0.85959,-0.3264 -1.65313,-0.37 v -2.1001 c 0.47213,-0.026 0.88502,-0.088 1.19166,-0.1731 -0.0117,0.2156 0.0145,0.4742 0.0879,0.7482 0.17243,0.6435 0.52466,1.1046 0.78961,1.0336 0.26491,-0.071 0.33935,-0.6464 0.16692,-1.2899 -0.13013,-0.4857 -0.36279,-0.8662 -0.58291,-0.9937 -0.22759,-0.1856 -0.86366,-0.328 -1.66088,-0.3711 -0.0814,-1.5617 -1.32067,-2.7946 -2.85203,-2.7946 z"
         id="rect6847" />
    </g>
    <g
       transform="matrix(0.69678523,0,0,0.69678523,-142.82352,769.14885)"
       id="g5834">
      <path
         inkscape:connector-curvature="0"
         style="opacity:1;vector-effect:none;fill:#e6e6e6;fill-opacity:1;fill-rule:evenodd;stroke:none;stroke-width:14.87447453;stroke-linecap:round;stroke-linejoin:miter;stroke-miterlimit:4;stroke-dasharray:none;stroke-dashoffset:0;stroke-opacity:1"
         d="m 226.78685,-1146.8007 a 70.868645,70.868645 0 0 0 -33.88423,9.0279 70.868645,70.868645 0 0 0 -33.52664,80.9868 l 18.72082,-16.2036 a 49.576272,49.576272 0 0 1 25.20777,-46.2045 49.576272,49.576272 0 0 1 23.70346,-6.3153 49.576272,49.576272 0 0 1 43.77149,25.3514 49.576272,49.576272 0 0 1 -19.03191,67.4765 49.576272,49.576272 0 0 1 -39.24826,3.9511 l -17.92552,15.5159 a 70.868645,70.868645 0 0 0 67.57831,-0.8894 70.868645,70.868645 0 0 0 27.20558,-96.4566 70.868645,70.868645 0 0 0 -62.57087,-36.2402 z"
         id="path4039" />
      <path
         inkscape:connector-curvature="0"
         style="opacity:1;vector-effect:none;fill:#999999;fill-opacity:1;fill-rule:nonzero;stroke:none;stroke-width:1.84401202;stroke-linecap:round;stroke-linejoin:round;stroke-miterlimit:4;stroke-dasharray:none;stroke-dashoffset:0;stroke-opacity:1"
         d="m 178.09677,-1072.9898 -18.72082,16.1996 14.42444,0.068 4.29844,-3.7197 v -12.5476 z"
         id="rect4053" />
      <path
         inkscape:connector-curvature="0"
         id="path4060"
         d="m 194.57499,-1013.2143 17.92436,-15.5161 -13.82803,-0.045 -4.11555,3.5628 0.0173,11.9983 z"
         style="opacity:1;vector-effect:none;fill:#999999;fill-opacity:1;fill-rule:nonzero;stroke:none;stroke-width:1.76552427;stroke-linecap:round;stroke-linejoin:round;stroke-miterlimit:4;stroke-dasharray:none;stroke-dashoffset:0;stroke-opacity:1" />
    </g>
    <path
       inkscape:connector-curvature="0"
       id="rect6237"
       d="m 21.805622,14.076497 c -0.06837,0.511232 0.08741,1.061901 0.473138,1.492096 0.670863,0.748348 1.771422,0.839975 2.467586,0.205273 0.415614,-0.378912 0.588267,-0.928466 0.518865,-1.469102 -0.05043,0.378145 -0.222813,0.73469 -0.518865,1.004625 -0.696164,0.634632 -1.796723,0.543423 -2.467586,-0.204855 -0.270446,-0.301708 -0.42635,-0.662991 -0.473138,-1.028037 z"
       style="opacity:1;vector-effect:none;fill:#a02c2c;fill-opacity:1;fill-rule:nonzero;stroke:none;stroke-width:0.34633139;stroke-linecap:round;stroke-linejoin:round;stroke-miterlimit:4;stroke-dasharray:none;stroke-dashoffset:0;stroke-opacity:1" />
    <rect
       transform="matrix(0.73899419,-0.6737118,-0.66752359,-0.74458865,0,0)"
       ry="27.352686"
       rx="43.865124"
       y="-27.986523"
       x="6.5062709"
       height="3.6281645"
       width="3.4008741"
       id="rect6239"
       style="opacity:1;vector-effect:none;fill:#e19292;fill-opacity:1;fill-rule:nonzero;stroke:none;stroke-width:0.34633741;stroke-linecap:round;stroke-linejoin:round;stroke-miterlimit:4;stroke-dasharray:none;stroke-dashoffset:0;stroke-opacity:1" />
    <rect
       style="opacity:1;vector-effect:none;fill:#e9afaf;fill-opacity:1;fill-rule:nonzero;stroke:none;stroke-width:0.22146893;stroke-linecap:round;stroke-linejoin:round;stroke-miterlimit:4;stroke-dasharray:none;stroke-dashoffset:0;stroke-opacity:1"
       id="rect6267"
       width="2.1747231"
       height="2.320066"
       x="6.9762526"
       y="-26.894777"
       rx="43.865124"
       ry="27.352686"
       transform="matrix(0.73899419,-0.6737118,-0.66752359,-0.74458865,0,0)" />
    <path
       style="opacity:1;vector-effect:none;fill:#cccccc;fill-opacity:1;fill-rule:evenodd;stroke:none;stroke-width:6.4072051;stroke-linecap:round;stroke-linejoin:miter;stroke-miterlimit:4;stroke-dasharray:none;stroke-dashoffset:0;stroke-opacity:1"
       id="path4618"
       d="M -28.852915,48.430378 A 59.982426,10.308305 0 0 1 -5.8151572,34.400677 59.982426,10.308305 0 0 1 75.823097,38.358835 59.982426,10.308305 0 0 1 52.796738,52.389115 59.982426,10.308305 0 0 1 -28.844733,48.432887"
       inkscape:connector-curvature="0" />
    <path
       id="path6088"
       d="M 22.872427,37.144695 A 59.17586,10.169693 0 0 0 -5.4210877,38.44025 59.17586,10.169693 0 0 0 -32.775891,44.191346 l -3.735765,0.0029 0.852655,3.433663 h 0.04681 a 59.17586,10.169693 0 0 0 7.463248,4.653227 l 0.0079,0.0026 a 59.17586,10.169693 0 0 0 80.543817,3.903204 59.17586,10.169693 0 0 0 30.12305,-8.397644 h 0.103701 l 0.944833,-3.687155 -3.964412,0.0029 A 59.17586,10.169693 0 0 0 75.119488,42.345445 59.17586,10.169693 0 0 0 22.872427,37.144897 Z"
       style="opacity:1;vector-effect:none;fill:#cccccc;fill-opacity:1;fill-rule:evenodd;stroke:none;stroke-width:6.32104969;stroke-linecap:round;stroke-linejoin:miter;stroke-miterlimit:4;stroke-dasharray:none;stroke-dashoffset:0;stroke-opacity:1"
       inkscape:connector-curvature="0" />
    <path
       inkscape:connector-curvature="0"
       d="M -24.761754,47.739167 A 55.293899,9.502557 0 0 1 -3.5247433,34.806067 55.293899,9.502557 0 0 1 71.732257,38.454852 55.293899,9.502557 0 0 1 50.505753,51.388454 55.293899,9.502557 0 0 1 -24.754212,47.741467"
       id="path4614"
       style="opacity:1;vector-effect:none;fill:#4d4d4d;fill-opacity:1;fill-rule:evenodd;stroke:none;stroke-width:5.90638685;stroke-linecap:round;stroke-linejoin:miter;stroke-miterlimit:4;stroke-dasharray:none;stroke-dashoffset:0;stroke-opacity:1" />
    <g
       id="g5225">
      <path
         style="opacity:1;vector-effect:none;fill:#da7d7d;fill-opacity:1;fill-rule:evenodd;stroke:none;stroke-width:1.83872926;stroke-linecap:round;stroke-linejoin:miter;stroke-miterlimit:4;stroke-dasharray:none;stroke-dashoffset:0;stroke-opacity:1"
         id="path6269"
         d="m 13.578691,2.5021979 a 3.4108927,1.0156882 81.623314 0 1 -0.319434,-4.6626081 3.4108927,1.0156882 81.623314 0 1 1.549406,0.9906196 3.4108927,1.0156882 81.623314 0 1 0.328785,4.6686004 A 3.4108927,1.0156882 81.623314 0 1 13.590035,2.53641"
         inkscape:connector-curvature="0" />
      <path
         style="opacity:1;vector-effect:none;fill:#e19494;fill-opacity:1;fill-rule:evenodd;stroke:none;stroke-width:10.74901867;stroke-linecap:round;stroke-linejoin:miter;stroke-miterlimit:4;stroke-dasharray:none;stroke-dashoffset:0;stroke-opacity:1"
         id="path4192"
         d="M 15.529617,4.6030053 A 9.5217472,14.548446 0 0 1 19.186683,-15.197541 9.5217472,14.548446 0 0 1 32.146126,-9.611274 9.5217472,14.548446 0 0 1 28.490868,10.190108 9.5217472,14.548446 0 0 1 15.530915,4.6065589"
         inkscape:connector-curvature="0" />
      <path
         style="opacity:1;vector-effect:none;fill:#dd8585;fill-opacity:1;fill-rule:evenodd;stroke:none;stroke-width:0.59240693;stroke-linecap:round;stroke-linejoin:miter;stroke-miterlimit:4;stroke-dasharray:none;stroke-dashoffset:0;stroke-opacity:1"
         id="path4708"
         d="M 21.655193,1.8638729 A 4.8724829,5.396795 0 0 1 28.311209,3.7940377 4.8724829,5.396795 0 0 1 26.588791,11.171878 4.8724829,5.396795 0 0 1 19.922392,9.2863079 4.8724829,5.396795 0 0 1 21.604564,1.8971096"
         inkscape:connector-curvature="0" />
      <path
         style="opacity:1;vector-effect:none;fill:#501616;fill-opacity:1;fill-rule:evenodd;stroke:none;stroke-width:1.83872926;stroke-linecap:round;stroke-linejoin:miter;stroke-miterlimit:4;stroke-dasharray:none;stroke-dashoffset:0;stroke-opacity:1"
         id="path6273"
         d="M 22.464062,1.6537922 A 0.75797621,0.54574284 0 0 1 22.755151,0.91108878 0.75797621,0.54574284 0 0 1 23.786776,1.1205424 0.75797621,0.54574284 0 0 1 23.495938,1.8633852 0.75797621,0.54574284 0 0 1 22.464243,1.6540709 l 0.661221,-0.2667991 z"
         inkscape:connector-curvature="0" />
      <path
         style="opacity:1;vector-effect:none;fill:#e49d9d;fill-opacity:1;fill-rule:evenodd;stroke:none;stroke-width:0.0941098;stroke-linecap:round;stroke-linejoin:miter;stroke-miterlimit:4;stroke-dasharray:none;stroke-dashoffset:0;stroke-opacity:1"
         id="path6275"
         d="M 21.613836,10.802164 A 2.8886179,1.5979115 0 0 1 22.646874,8.6193451 2.8886179,1.5979115 0 0 1 26.595941,9.1842289 2.8886179,1.5979115 0 0 1 25.586755,11.370462 2.8886179,1.5979115 0 0 1 21.63159,10.818817"
         inkscape:connector-curvature="0" />
      <path
         d="m 33.500596,2.4132881 a 0.77635587,3.4494962 6.0359695 0 0 0.24306,-4.7366067 0.77635587,3.4494962 6.0359695 0 0 -1.178996,1.0062973 0.77635587,3.4494962 6.0359695 0 0 -0.250187,4.7426686 0.77635587,3.4494962 6.0359695 0 0 1.17749,-0.9776593"
         id="path6278"
         style="opacity:1;vector-effect:none;fill:#da7d7d;fill-opacity:1;fill-rule:evenodd;stroke:none;stroke-width:1.61663437;stroke-linecap:round;stroke-linejoin:miter;stroke-miterlimit:4;stroke-dasharray:none;stroke-dashoffset:0;stroke-opacity:1"
         inkscape:connector-curvature="0" />
      <path
         style="fill:#2b1100;stroke:none;stroke-width:0.11582546;stroke-linecap:butt;stroke-linejoin:miter;stroke-opacity:1"
         d="M 14.805333,-0.56874369 C 14.654911,-1.411157 14.568259,-2.263186 13.674025,-2.9934169 c 0.381804,-6.353009 1.475234,-9.8696141 2.85999,-11.4221211 3.350569,-3.491382 10.294542,-6.046424 14.818915,1.364723 1.588566,2.377571 1.8989,4.7550715 2.218181,7.1326421 l -0.75418,4.95797527 -0.754172,-4.65354987 -0.04438,-3.696794 -0.931644,-2.5225015 c -1.847826,-1.165165 -3.548316,-1.715625 -6.033442,-0.739359 l -2.262532,1.609225 c 0.01129,-0.303589 -0.46061,-0.201162 -0.842908,-0.173987 0.561874,-0.299618 1.108397,-0.608084 0.975994,-1.30473 -0.635872,-1.315113 -1.271751,-0.305889 -1.907617,-0.08703 -0.806361,-0.6632 -1.769395,0.007 -2.750545,0.826387 l -0.04439,1.000305 c -0.271335,-0.418001 -0.253741,-0.971527 -1.818916,-0.782908 -0.902176,1.6446923 -0.178878,3.1122614 -0.133092,4.65362 -1.643208,2.2874065 -0.975988,4.1752068 -1.463988,6.26277531 z"
         id="path6280"
         inkscape:connector-curvature="0" />
      <path
         style="fill:#2b1100;fill-opacity:1;stroke:none;stroke-width:0.03064549px;stroke-linecap:butt;stroke-linejoin:miter;stroke-opacity:1"
         d="m 17.706265,-5.1062091 c 3.279608,-0.9240766 4.103661,-0.3555695 4.502152,0.4716539 -1.500722,-0.1571947 -3.424413,-0.3990489 -4.502152,-0.4716539 z"
         id="path6284"
         inkscape:connector-curvature="0" />
      <path
         d="M 24.127859,2.3511348 A 0.74569001,1.3480183 0 0 1 25.146504,2.8332405 0.74569001,1.3480183 0 0 1 24.882903,4.6760981 0.74569001,1.3480183 0 0 1 23.86267,4.205141 0.74569001,1.3480183 0 0 1 24.120111,2.3594266"
         id="path6286"
         style="opacity:1;vector-effect:none;fill:#d15f5f;fill-opacity:1;fill-rule:evenodd;stroke:none;stroke-width:0.11582546;stroke-linecap:round;stroke-linejoin:miter;stroke-miterlimit:4;stroke-dasharray:none;stroke-dashoffset:0;stroke-opacity:1"
         inkscape:connector-curvature="0" />
      <path
         style="fill:#c83737;stroke:none;stroke-width:0.11582546;stroke-linecap:butt;stroke-linejoin:miter;stroke-opacity:1"
         d="M 20.794501,5.3055739 27.612043,5.1984083 C 27.110595,4.8345471 26.210056,4.6702451 25.3824,4.4695013 25.266316,4.7124703 24.924389,4.7748326 24.524853,4.7910677 24.118132,4.7464734 23.810237,4.6424434 23.688738,4.4265793 22.427947,4.6085796 21.608333,4.9559967 20.794501,5.3055739 Z"
         id="path6288"
         inkscape:connector-curvature="0" />
      <path
         d="M 25.253404,1.623482 A 0.75797621,0.54574284 0 0 1 25.544493,0.88077862 0.75797621,0.54574284 0 0 1 26.576126,1.0902323 0.75797621,0.54574284 0 0 1 26.285274,1.833075 0.75797621,0.54574284 0 0 1 25.253585,1.6237607 l 0.661222,-0.266799 z"
         id="path6290"
         style="opacity:1;vector-effect:none;fill:#501616;fill-opacity:1;fill-rule:evenodd;stroke:none;stroke-width:1.83872926;stroke-linecap:round;stroke-linejoin:miter;stroke-miterlimit:4;stroke-dasharray:none;stroke-dashoffset:0;stroke-opacity:1"
         inkscape:connector-curvature="0" />
      <path
         style="opacity:1;fill:#da7a7a;fill-opacity:1;stroke:none;stroke-width:0.1221366;stroke-linecap:butt;stroke-linejoin:miter;stroke-opacity:1"
         d="M 22.829403,0.12246726 C 21.621602,0.8630106 21.884722,1.4383462 22.526761,1.9554305 l 0.05679,-0.5688555 c 0.187477,-0.3511101 0.701551,-0.1718272 1.106411,0.5372214 0.174601,0.1358732 0.409167,0.4530498 0.709425,0.4242029 0.300273,0.028568 0.534839,-0.2883297 0.709453,-0.4242029 0.404846,-0.7090486 0.918934,-0.8883315 1.106411,-0.5372214 l 0.05672,0.5688555 C 26.914021,1.4383462 27.177134,0.8630106 25.96934,0.12246726 25.711773,-0.67402794 25.304635,-3.162039 24.57108,-3.1617602 c -0.05289,0 -0.111088,0.00697 -0.171723,0.013239 -1.043944,0.050169 -1.48811,2.76045402 -1.569954,3.27070984 z"
         id="path6292"
         inkscape:connector-curvature="0" />
      <path
         style="fill:#d35f5f;stroke:none;stroke-width:0.11582546;stroke-linecap:butt;stroke-linejoin:miter;stroke-opacity:1"
         d="m 20.794501,5.3055739 c 1.514268,1.1215455 4.753065,1.4879848 6.817542,-0.1071656 l -6.817542,0.1071656"
         id="path6294"
         inkscape:connector-curvature="0" />
      <path
         id="path6296"
         d="m 30.293117,-5.1062091 c -3.279601,-0.9240766 -4.103661,-0.3555695 -4.502146,0.4716539 1.500715,-0.1571947 3.424414,-0.3990489 4.502146,-0.4716539 z"
         style="fill:#2b1100;fill-opacity:1;stroke:none;stroke-width:0.03064549px;stroke-linecap:butt;stroke-linejoin:miter;stroke-opacity:1"
         inkscape:connector-curvature="0" />
      <path
         id="path6298"
         d="m 13.537309,-0.31490483 c 0.02042,0.54648866 0.2514,-0.17621699 0.381748,0.28010766 0.08754,0.30651582 0.09305,0.86798536 0.02007,1.37796247 -0.101821,0.7112087 0.100365,1.0978548 0.292859,1.183211 0.199552,-1.2219523 0.421632,-1.63904789 0.198096,-2.84204759 -0.22456,-1.20362681 -0.929247,-0.97640511 -0.892749,0 z"
         style="opacity:1;vector-effect:none;fill:#cf5050;fill-opacity:1;fill-rule:nonzero;stroke:none;stroke-width:0.14712562;stroke-linecap:round;stroke-linejoin:round;stroke-miterlimit:4;stroke-dasharray:none;stroke-dashoffset:0;stroke-opacity:1"
         inkscape:connector-curvature="0" />
      <rect
         style="opacity:1;vector-effect:none;fill:#e39797;fill-opacity:1;fill-rule:nonzero;stroke:none;stroke-width:0.20989653;stroke-linecap:round;stroke-linejoin:round;stroke-miterlimit:4;stroke-dasharray:none;stroke-dashoffset:0;stroke-opacity:1"
         id="rect6300"
         width="1.3600476"
         height="5.1728344"
         x="23.748791"
         y="-3.2490025"
         rx="19.801121"
         ry="27.806425" />
      <path
         style="opacity:1;vector-effect:none;fill:#cf5050;fill-opacity:1;fill-rule:nonzero;stroke:none;stroke-width:0.15507315;stroke-linecap:round;stroke-linejoin:round;stroke-miterlimit:4;stroke-dasharray:none;stroke-dashoffset:0;stroke-opacity:1"
         d="m 32.942283,-0.50812338 c -0.123422,0.60153469 0.276443,-0.0783186 0.277279,0.47485914 6.97e-4,0.37152588 -0.140409,0.98260653 -0.340018,1.50268704 -0.278386,0.7252837 -0.193511,1.2351215 -0.03916,1.4139863 0.500877,-1.2351215 0.813079,-1.5876949 0.920955,-2.99199582 0.107096,-1.40548548 -0.598399,-1.47516398 -0.819092,-0.39953666 z"
         id="path6312"
         inkscape:connector-curvature="0" />
      <g
         id="g4222"
         transform="matrix(0.69678523,0,0,0.69678523,-80.048861,743.20244)">
        <g
           id="g4216">
          <path
             d="m 130.55474,-1062.4776 a 2.7419289,6.3519424 0 0 1 1.05311,-8.6451 2.7419289,6.3519424 0 0 1 3.73186,2.439 2.7419289,6.3519424 0 0 1 -1.05258,8.6454 2.7419289,6.3519424 0 0 1 -3.73201,-2.4378"
             id="path6316"
             style="opacity:1;vector-effect:none;fill:#000000;fill-opacity:1;fill-rule:evenodd;stroke:none;stroke-width:3.08933735;stroke-linecap:round;stroke-linejoin:miter;stroke-miterlimit:4;stroke-dasharray:none;stroke-dashoffset:0;stroke-opacity:1"
             inkscape:connector-curvature="0" />
          <path
             style="opacity:1;vector-effect:none;fill:#000000;fill-opacity:1;fill-rule:evenodd;stroke:none;stroke-width:3.08933735;stroke-linecap:round;stroke-linejoin:miter;stroke-miterlimit:4;stroke-dasharray:none;stroke-dashoffset:0;stroke-opacity:1"
             id="path6320"
             d="m 166.69759,-1062.4776 a 2.7419289,6.3519424 0 0 0 -1.0531,-8.6451 2.7419289,6.3519424 0 0 0 -3.73187,2.439 2.7419289,6.3519424 0 0 0 1.05259,8.6454 2.7419289,6.3519424 0 0 0 3.73201,-2.4378"
             inkscape:connector-curvature="0" />
        </g>
        <path
           id="path4196"
           d="m 148.44751,-1091.7287 a 17.640217,20.786243 0 0 0 -8.43411,2.6479 17.640217,20.786243 0 0 0 -8.51473,23.0854 h 0.9462 a 16.741352,19.727072 0 0 1 8.00778,-22.1562 16.741352,19.727072 0 0 1 8.00416,-2.5131 16.741352,19.727072 0 0 1 14.78153,10.0878 16.741352,19.727072 0 0 1 1.58026,14.5815 h 0.93069 a 17.640217,20.786243 0 0 0 -1.72702,-15.104 17.640217,20.786243 0 0 0 -15.57476,-10.6293 z"
           style="opacity:1;vector-effect:none;fill:#000000;fill-opacity:1;fill-rule:evenodd;stroke:none;stroke-width:15.875;stroke-linecap:round;stroke-linejoin:miter;stroke-miterlimit:4;stroke-dasharray:none;stroke-dashoffset:0;stroke-opacity:1"
           inkscape:connector-curvature="0" />
      </g>
      <path
         style="opacity:1;vector-effect:none;fill:#000000;fill-opacity:1;fill-rule:nonzero;stroke:none;stroke-width:0.03797606"
         d="m 18.244264,-4.7832492 c -0.185411,0.014633 -0.503628,0.037626 -0.503628,0.037626 l -1.777535,0.2414361 h -0.662769 c -0.175451,0 -0.316693,0.131344 -0.316693,0.2945311 v 0.6618763 c 0,0.1632568 0.141242,0.2946008 0.316693,0.2946008 h 0.226324 l 0.04004,0.093648 0.756307,2.0500815 c 0.245266,0.82945311 1.010194,1.43147555 1.921265,1.43147555 h 2.883588 c 0.676069,0 1.271414,-0.33173945 1.634021,-0.84171656 l 0.0033,-6.968e-5 0.0098,-0.0181164 c 0.08581,-0.1236097 0.157916,-0.25732279 0.214441,-0.39925794 l 1.243734,-2.31597477 h 0.535601 l 1.243734,2.31597477 c 0.05651,0.14193515 0.128633,0.27564824 0.214442,0.39925794 l 0.0098,0.0181164 0.0035,6.968e-5 c 0.362607,0.50997711 0.957954,0.84171656 1.634024,0.84171656 h 2.883569 c 0.911068,0 1.675998,-0.60202244 1.921267,-1.43147555 l 0.756304,-2.0500815 0.04007,-0.093648 h 0.233743 c 0.175451,0 0.316689,-0.131344 0.316689,-0.2946008 V -4.209656 c 0,-0.1631871 -0.141238,-0.2945311 -0.316689,-0.2945311 h -0.67021 l -1.777534,-0.2414361 c -0.171792,0 -0.355053,-0.028568 -0.503629,-0.037626 h -2.88359 c -0.53433,0.032052 -1.053609,0.1715486 -1.600105,0.2801077 h -3.545851 c -0.52799,-0.092812 -1.082937,-0.2499369 -1.600105,-0.2808044 z"
         id="rect4666"
         inkscape:connector-curvature="0" />
      <path
         style="opacity:1;vector-effect:none;fill:#808080;fill-opacity:1;fill-rule:nonzero;stroke:none;stroke-width:0.19217797;stroke-opacity:1"
         d="m 25.524729,-3.933868 c 2.550057,-0.3571721 4.517564,-0.5855783 6.867327,-0.098595 0.243141,1.3512756 -0.05418,2.5296091 -0.576118,3.6360344 -1.522539,0.18074609 -3.100282,0.25704407 -4.897004,-0.0806877 -0.747909,-1.0070638 -1.328861,-2.0345433 -1.394205,-3.4567517 z"
         id="rect6103"
         inkscape:connector-curvature="0" />
      <path
         id="path6108"
         d="m 23.467613,-3.933868 c -2.550057,-0.3571721 -4.517564,-0.5855783 -6.867327,-0.098595 -0.243141,1.3512756 0.05418,2.5296091 0.576118,3.6360344 1.522539,0.18074609 3.100282,0.25704407 4.897004,-0.0806877 0.747909,-1.0070637 1.328861,-2.0345432 1.394205,-3.4567517 z"
         style="opacity:1;vector-effect:none;fill:#808080;fill-opacity:1;fill-rule:nonzero;stroke:none;stroke-width:0.19217797;stroke-opacity:1"
         inkscape:connector-curvature="0" />
      <g
         id="g4919"
         transform="matrix(0.55601278,0,0,0.55601278,-31.957355,595.88233)">
        <rect
           transform="matrix(1,0,-0.45974793,0.88804946,0,0)"
           y="-1214.4139"
           x="-466.75519"
           height="5.8988395"
           width="2.0112016"
           id="rect4913"
           style="opacity:1;vector-effect:none;fill:#b3b3b3;fill-opacity:1;fill-rule:nonzero;stroke:none;stroke-width:0.28076559;stroke-opacity:1" />
        <rect
           style="opacity:1;vector-effect:none;fill:#b3b3b3;fill-opacity:1;fill-rule:nonzero;stroke:none;stroke-width:0.28076559;stroke-opacity:1"
           id="rect4915"
           width="2.0112016"
           height="5.8988395"
           x="-463.08411"
           y="-1214.4139"
           transform="matrix(1,0,-0.45974793,0.88804946,0,0)" />
      </g>
      <g
         transform="matrix(0.55601278,0,0,0.55601278,-22.347707,595.88233)"
         id="g6114">
        <rect
           style="opacity:1;vector-effect:none;fill:#b3b3b3;fill-opacity:1;fill-rule:nonzero;stroke:none;stroke-width:0.28076559;stroke-opacity:1"
           id="rect6110"
           width="2.0112016"
           height="5.8988395"
           x="-466.75519"
           y="-1214.4139"
           transform="matrix(1,0,-0.45974793,0.88804946,0,0)" />
        <rect
           transform="matrix(1,0,-0.45974793,0.88804946,0,0)"
           y="-1214.4139"
           x="-463.08411"
           height="5.8988395"
           width="2.0112016"
           id="rect6112"
           style="opacity:1;vector-effect:none;fill:#b3b3b3;fill-opacity:1;fill-rule:nonzero;stroke:none;stroke-width:0.28076559;stroke-opacity:1" />
      </g>
    </g>
  </g>
  <g
     style="filter:url(#filter4025)"
     id="g36"
     transform="matrix(0.08396281,0,0,0.08396281,451.88004,-127.2929)"
     inkscape:export-filename="C:\Users\stepan\Documents\GitHub\SMC_Spring_2019_WD3\week_10\img\mousehand.png"
     inkscape:export-xdpi="150"
     inkscape:export-ydpi="150">
    <path
       inkscape:connector-curvature="0"
       style="opacity:0.25;fill:#241c1c;fill-rule:evenodd"
       id="path2"
       d="m -6921.887,2175.608 c -42.924,-46.627 -13.93,-101.142 61.229,-131.337 80.595,-32.379 185.907,-18.985 216.578,37.144 27.896,51.053 10.656,123.58 -61.06,131.7 -84.345,9.552 -176.276,19.518 -216.74,-37.499 -0.01,0 -0.01,0 -0.01,-0.01 z" />
    <path
       inkscape:connector-curvature="0"
       style="fill:#e9afaf"
       id="path4"
       d="m -6600.596,2091.242 c -11.152,-14.52 -15.815,-27 -45.357,-42.492 -15.18,-6.25 -22.307,-58.583 -52.16,-83.468 l -99.028,-59.565 c -14.808,12.008 -38.54,3.474 -64.633,0.38 -26.56,5.116 -48.86,17.383 -69.925,26.178 -18.398,19.732 -40.798,43.481 -61.987,66.015 -5.88,37.51 -5.016,70.83 10.205,95.229 l 140.983,-72.465 56.696,0.758 97.894,66.016 74.839,36.801 c 4.385,0.523 4.127,-0.125 12.473,-33.387 z" />
    <path
       inkscape:connector-curvature="0"
       style="fill:#800000"
       id="path6"
       d="m -6876.54,2028.612 24.648,-74.083 c 13.048,-6.868 21.272,-18.137 55.096,-6.048 l 13.05,72.571 -23.2,19.655 z" />
    <path
       inkscape:connector-curvature="0"
       style="fill:#241c1c;fill-rule:evenodd"
       id="path8"
       d="m -6978.115,2171.849 c -42.924,-46.628 -13.93,-101.143 61.228,-131.338 80.596,-32.378 185.908,-18.985 216.578,37.145 27.897,51.052 10.657,123.58 -61.059,131.7 -84.346,9.551 -176.277,19.517 -216.74,-37.5 -0.01,0 -0.01,0 -0.01,-0.01 z" />
    <path
       inkscape:connector-curvature="0"
       style="fill:#e19494;fill-rule:evenodd"
       id="path10"
       d="m -6803.153,1906.114 c 3.136,-23.496 82.394,-23.929 85.755,28.45 3.157,49.222 19.38,123.152 6.969,155.677 -13.137,34.427 -70.358,35.05 -77.313,-20.585 m -78.594,-70.009 c 20.105,-48.61 33.75,-60.708 10.39,-88.943 -10.806,-13.062 -60.94,-6.605 -81.795,25.677 -26.074,40.36 -8.356,143.04 4.72,176.21 13.586,34.468 72.921,25.261 79.087,-30.67" />
    <path
       inkscape:connector-curvature="0"
       style="fill:#cccccc"
       id="path12"
       d="m -6979.858,2138.86 c 50.593,23.262 321.86,29.983 282.811,-51.149 10.463,20.09 22.94,69.16 -12.829,78.973 -81.329,14.848 -216.102,17.492 -278.481,-2.592 z" />
    <path
       inkscape:connector-curvature="0"
       style="fill:#e19494;fill-rule:evenodd"
       id="path14"
       d="m -6712.525,2106.258 a 68.575,45.162 -36.863 0 1 81.489,-51.893 68.575,45.162 -36.863 0 1 29.115,57.463 68.575,45.162 -36.863 0 1 -81.485,51.902 68.575,45.162 -36.863 0 1 -29.127,-57.456" />
    <rect
       style="fill:#808080"
       id="rect16"
       rx="129.58469"
       ry="129.58469"
       y="2042.656"
       x="-6844.707"
       height="75.332001"
       width="39.556" />
    <rect
       style="fill:#c8b7b7"
       id="rect18"
       width="32.071999"
       height="64.144997"
       x="-6840.9648"
       y="2046.359"
       ry="129.58469"
       rx="129.58469" />
    <path
       inkscape:connector-curvature="0"
       style="fill:#d35f5f;fill-rule:evenodd"
       id="path20"
       d="m -6913.159,2131.04 a 39.528,29.242 -29.911 0 1 -9.8,-40.97 39.528,29.242 -29.911 0 1 51.736,-19.582 39.528,29.242 -29.911 0 1 9.809,40.967 39.528,29.242 -29.911 0 1 -51.736,19.588" />
    <path
       inkscape:connector-curvature="0"
       style="fill:#eab3b3"
       id="path22"
       d="m -6926.746,2064.055 c 8.824,-10.169 20.012,-15.137 33.011,-17.432 10.678,-1.886 9.175,10.477 14.596,15.889 l 1,0.998 c 10.165,10.147 15.288,19.768 7.761,24.488 l -36.753,23.044 c -7.526,4.72 -20.893,15.476 -22.614,1.217 l -2.604,-21.578 c -1.721,-14.26 -0.22,-19.916 5.603,-26.626 z" />
    <path
       inkscape:connector-curvature="0"
       style="fill:#d35f5f;fill-rule:evenodd"
       id="path24"
       d="m -6673.66,2154.915 a 25.15,33.997 -6.95 0 1 -35.735,-5.984 25.15,33.997 -6.95 0 1 1.852,-47.544 25.15,33.997 -6.95 0 1 35.734,5.978 25.15,33.997 -6.95 0 1 -1.847,47.544 m -87.674,-44.425 a 32.66,22.085 -14.947 0 1 -2.424,-31.425 32.66,22.085 -14.947 0 1 45.28,-8.056 32.66,22.085 -14.947 0 1 2.429,31.424 32.66,22.085 -14.947 0 1 -45.28,8.06" />
    <path
       inkscape:connector-curvature="0"
       style="fill:#eab3b3"
       id="path26"
       d="m -6774.36,2082.106 -1.93,-24.777 c -0.745,-9.577 11.268,-17.84 26.936,-18.528 15.668,-0.689 28.881,6.467 29.627,16.043 l 1.929,24.777 c 0.745,9.577 -11.268,17.84 -26.936,18.529 -15.668,0.688 -28.881,-6.468 -29.627,-16.044 z m 103.457,7.544 c 5.578,5.409 13.363,14.82 13.363,23.119 v 15.788 c 0,12.846 -4.965,24.589 -12.294,24.589 -7.329,0 -1.497,-13.495 -5.746,-26.593 l -8.285,-25.544 c -4.249,-13.099 7.7,-16.461 12.962,-11.36 z" />
    <path
       inkscape:connector-curvature="0"
       style="fill:#e19494;fill-rule:evenodd"
       id="path28"
       d="m -6961.055,2009.187 c -2.603,-22.774 -61.743,-22.574 -78.53,24.37 -16.778,46.921 -24.903,129.9 -10.872,161.634 14.032,31.733 61.688,19.874 67.46,-34.051" />
    <path
       inkscape:connector-curvature="0"
       style="fill:#d35f5f;fill-rule:evenodd"
       id="path30"
       d="m -7036.014,2209.096 a 37.317,28.506 -51.996 0 1 -8.458,-43.694 37.317,28.506 -51.996 0 1 44.645,-20.884 37.317,28.506 -51.996 0 1 8.464,43.691 37.317,28.506 -51.996 0 1 -44.644,20.89" />
    <path
       inkscape:connector-curvature="0"
       style="fill:#eab3b3"
       id="path32"
       d="m -7020.28,2164.428 12.125,-7.524 c 7.788,-4.834 6.341,-25.705 -5.86,-26.462 -7.925,-0.491 -24.959,4.134 -29.307,11.708 l -10.612,18.486 c 2.414,9.558 -4.157,28.368 5.103,32.132 2,0.46 14.747,-23.861 28.552,-28.34 z" />
    <path
       inkscape:connector-curvature="0"
       style="fill:#f4d7d7"
       id="path34"
       d="m -6895.158,2049.424 c 3.223,-1.434 6.238,0.163 6.274,0.23 6.351,11.693 11.957,19.027 15.492,30.72 0.032,0.105 -7.087,12.904 -12.703,11.441 -3.356,-0.874 -3.758,-1.832 -3.78,-1.906 l -10.645,-35.08 c -0.023,-0.075 2.139,-3.972 5.362,-5.405 z m -124.328,84.384 c 2.083,-0.696 4.032,0.079 4.055,0.111 4.104,5.675 7.726,9.235 10.01,14.91 0.022,0.051 -4.579,6.263 -8.208,5.553 -2.169,-0.425 -2.429,-0.89 -2.443,-0.925 l -6.879,-17.026 c -0.015,-0.036 1.382,-1.928 3.465,-2.623 z m 289.282,-88.745 c -3.513,-0.319 -5.853,2.165 -5.866,2.239 -2.244,13.116 -5.188,21.865 -4.766,34.074 0,0.11 10.867,9.932 15.711,6.738 2.896,-1.91 2.968,-2.946 2.965,-3.024 l -1.227,-36.639 c 0,-0.078 -3.304,-3.07 -6.817,-3.388 z" />
  </g>
</svg>
