<?xml version="1.0" encoding="UTF-8" standalone="no"?>
<svg
   xmlns:dc="http://purl.org/dc/elements/1.1/"
   xmlns:cc="http://creativecommons.org/ns#"
   xmlns:rdf="http://www.w3.org/1999/02/22-rdf-syntax-ns#"
   xmlns:svg="http://www.w3.org/2000/svg"
   xmlns="http://www.w3.org/2000/svg"
   xmlns:sodipodi="http://sodipodi.sourceforge.net/DTD/sodipodi-0.dtd"
   xmlns:inkscape="http://www.inkscape.org/namespaces/inkscape"
   width="47mm"
   height="39mm"
   viewBox="0 0 47 39"
   version="1.1"
   id="svg6511"
   sodipodi:docname="mouseHand.svg"
   inkscape:version="0.92.3 (2405546, 2018-03-11)">
  <sodipodi:namedview
     pagecolor="#ffffff"
     bordercolor="#666666"
     borderopacity="1"
     objecttolerance="10"
     gridtolerance="10"
     guidetolerance="10"
     inkscape:pageopacity="0"
     inkscape:pageshadow="2"
     inkscape:window-width="2238"
     inkscape:window-height="1409"
     id="namedview149"
     showgrid="false"
     inkscape:zoom="1.1321263"
     inkscape:cx="-263.47226"
     inkscape:cy="35.019278"
     inkscape:window-x="1077"
     inkscape:window-y="470"
     inkscape:window-maximized="0"
     inkscape:current-layer="svg6511" />
  <defs
     id="defs6505" />
  <metadata
     id="metadata6508">
    <rdf:RDF>
      <cc:Work
         rdf:about="">
        <dc:format>image/svg+xml</dc:format>
        <dc:type
           rdf:resource="http://purl.org/dc/dcmitype/StillImage" />
        <dc:title></dc:title>
      </cc:Work>
    </rdf:RDF>
  </metadata>
  <g
     style="filter:url(#filter4025)"
     id="g36"
     transform="matrix(0.08396281,0,0,0.08396281,561.89437,-136.1026)"
     inkscape:export-filename="C:\Users\stepan\Documents\GitHub\SMC_Spring_2019_WD3\week_10\img\mousehand.png"
     inkscape:export-xdpi="150"
     inkscape:export-ydpi="150">
    <path
       inkscape:connector-curvature="0"
       style="opacity:0.25;fill:#241c1c;fill-rule:evenodd"
       id="path2"
       d="m -6921.887,2175.608 c -42.924,-46.627 -13.93,-101.142 61.229,-131.337 80.595,-32.379 185.907,-18.985 216.578,37.144 27.896,51.053 10.656,123.58 -61.06,131.7 -84.345,9.552 -176.276,19.518 -216.74,-37.499 -0.01,0 -0.01,0 -0.01,-0.01 z" />
    <path
       inkscape:connector-curvature="0"
       style="fill:#e9afaf"
       id="path4"
       d="m -6600.596,2091.242 c -11.152,-14.52 -15.815,-27 -45.357,-42.492 -15.18,-6.25 -22.307,-58.583 -52.16,-83.468 l -99.028,-59.565 c -14.808,12.008 -38.54,3.474 -64.633,0.38 -26.56,5.116 -48.86,17.383 -69.925,26.178 -18.398,19.732 -40.798,43.481 -61.987,66.015 -5.88,37.51 -5.016,70.83 10.205,95.229 l 140.983,-72.465 56.696,0.758 97.894,66.016 74.839,36.801 c 4.385,0.523 4.127,-0.125 12.473,-33.387 z" />
    <path
       inkscape:connector-curvature="0"
       style="fill:#800000"
       id="path6"
       d="m -6876.54,2028.612 24.648,-74.083 c 13.048,-6.868 21.272,-18.137 55.096,-6.048 l 13.05,72.571 -23.2,19.655 z" />
    <path
       inkscape:connector-curvature="0"
       style="fill:#241c1c;fill-rule:evenodd"
       id="path8"
       d="m -6978.115,2171.849 c -42.924,-46.628 -13.93,-101.143 61.228,-131.338 80.596,-32.378 185.908,-18.985 216.578,37.145 27.897,51.052 10.657,123.58 -61.059,131.7 -84.346,9.551 -176.277,19.517 -216.74,-37.5 -0.01,0 -0.01,0 -0.01,-0.01 z" />
    <path
       inkscape:connector-curvature="0"
       style="fill:#e19494;fill-rule:evenodd"
       id="path10"
       d="m -6803.153,1906.114 c 3.136,-23.496 82.394,-23.929 85.755,28.45 3.157,49.222 19.38,123.152 6.969,155.677 -13.137,34.427 -70.358,35.05 -77.313,-20.585 m -78.594,-70.009 c 20.105,-48.61 33.75,-60.708 10.39,-88.943 -10.806,-13.062 -60.94,-6.605 -81.795,25.677 -26.074,40.36 -8.356,143.04 4.72,176.21 13.586,34.468 72.921,25.261 79.087,-30.67" />
    <path
       inkscape:connector-curvature="0"
       style="fill:#cccccc"
       id="path12"
       d="m -6979.858,2138.86 c 50.593,23.262 321.86,29.983 282.811,-51.149 10.463,20.09 22.94,69.16 -12.829,78.973 -81.329,14.848 -216.102,17.492 -278.481,-2.592 z" />
    <path
       inkscape:connector-curvature="0"
       style="fill:#e19494;fill-rule:evenodd"
       id="path14"
       d="m -6712.525,2106.258 a 68.575,45.162 -36.863 0 1 81.489,-51.893 68.575,45.162 -36.863 0 1 29.115,57.463 68.575,45.162 -36.863 0 1 -81.485,51.902 68.575,45.162 -36.863 0 1 -29.127,-57.456" />
    <rect
       style="fill:#808080"
       id="rect16"
       rx="129.58469"
       ry="129.58469"
       y="2042.656"
       x="-6844.707"
       height="75.332001"
       width="39.556" />
    <rect
       style="fill:#c8b7b7"
       id="rect18"
       width="32.071999"
       height="64.144997"
       x="-6840.9648"
       y="2046.359"
       ry="129.58469"
       rx="129.58469" />
    <path
       inkscape:connector-curvature="0"
       style="fill:#d35f5f;fill-rule:evenodd"
       id="path20"
       d="m -6913.159,2131.04 a 39.528,29.242 -29.911 0 1 -9.8,-40.97 39.528,29.242 -29.911 0 1 51.736,-19.582 39.528,29.242 -29.911 0 1 9.809,40.967 39.528,29.242 -29.911 0 1 -51.736,19.588" />
    <path
       inkscape:connector-curvature="0"
       style="fill:#eab3b3"
       id="path22"
       d="m -6926.746,2064.055 c 8.824,-10.169 20.012,-15.137 33.011,-17.432 10.678,-1.886 9.175,10.477 14.596,15.889 l 1,0.998 c 10.165,10.147 15.288,19.768 7.761,24.488 l -36.753,23.044 c -7.526,4.72 -20.893,15.476 -22.614,1.217 l -2.604,-21.578 c -1.721,-14.26 -0.22,-19.916 5.603,-26.626 z" />
    <path
       inkscape:connector-curvature="0"
       style="fill:#d35f5f;fill-rule:evenodd"
       id="path24"
       d="m -6673.66,2154.915 a 25.15,33.997 -6.95 0 1 -35.735,-5.984 25.15,33.997 -6.95 0 1 1.852,-47.544 25.15,33.997 -6.95 0 1 35.734,5.978 25.15,33.997 -6.95 0 1 -1.847,47.544 m -87.674,-44.425 a 32.66,22.085 -14.947 0 1 -2.424,-31.425 32.66,22.085 -14.947 0 1 45.28,-8.056 32.66,22.085 -14.947 0 1 2.429,31.424 32.66,22.085 -14.947 0 1 -45.28,8.06" />
    <path
       inkscape:connector-curvature="0"
       style="fill:#eab3b3"
       id="path26"
       d="m -6774.36,2082.106 -1.93,-24.777 c -0.745,-9.577 11.268,-17.84 26.936,-18.528 15.668,-0.689 28.881,6.467 29.627,16.043 l 1.929,24.777 c 0.745,9.577 -11.268,17.84 -26.936,18.529 -15.668,0.688 -28.881,-6.468 -29.627,-16.044 z m 103.457,7.544 c 5.578,5.409 13.363,14.82 13.363,23.119 v 15.788 c 0,12.846 -4.965,24.589 -12.294,24.589 -7.329,0 -1.497,-13.495 -5.746,-26.593 l -8.285,-25.544 c -4.249,-13.099 7.7,-16.461 12.962,-11.36 z" />
    <path
       inkscape:connector-curvature="0"
       style="fill:#e19494;fill-rule:evenodd"
       id="path28"
       d="m -6961.055,2009.187 c -2.603,-22.774 -61.743,-22.574 -78.53,24.37 -16.778,46.921 -24.903,129.9 -10.872,161.634 14.032,31.733 61.688,19.874 67.46,-34.051" />
    <path
       inkscape:connector-curvature="0"
       style="fill:#d35f5f;fill-rule:evenodd"
       id="path30"
       d="m -7036.014,2209.096 a 37.317,28.506 -51.996 0 1 -8.458,-43.694 37.317,28.506 -51.996 0 1 44.645,-20.884 37.317,28.506 -51.996 0 1 8.464,43.691 37.317,28.506 -51.996 0 1 -44.644,20.89" />
    <path
       inkscape:connector-curvature="0"
       style="fill:#eab3b3"
       id="path32"
       d="m -7020.28,2164.428 12.125,-7.524 c 7.788,-4.834 6.341,-25.705 -5.86,-26.462 -7.925,-0.491 -24.959,4.134 -29.307,11.708 l -10.612,18.486 c 2.414,9.558 -4.157,28.368 5.103,32.132 2,0.46 14.747,-23.861 28.552,-28.34 z" />
    <path
       inkscape:connector-curvature="0"
       style="fill:#f4d7d7"
       id="path34"
       d="m -6895.158,2049.424 c 3.223,-1.434 6.238,0.163 6.274,0.23 6.351,11.693 11.957,19.027 15.492,30.72 0.032,0.105 -7.087,12.904 -12.703,11.441 -3.356,-0.874 -3.758,-1.832 -3.78,-1.906 l -10.645,-35.08 c -0.023,-0.075 2.139,-3.972 5.362,-5.405 z m -124.328,84.384 c 2.083,-0.696 4.032,0.079 4.055,0.111 4.104,5.675 7.726,9.235 10.01,14.91 0.022,0.051 -4.579,6.263 -8.208,5.553 -2.169,-0.425 -2.429,-0.89 -2.443,-0.925 l -6.879,-17.026 c -0.015,-0.036 1.382,-1.928 3.465,-2.623 z m 289.282,-88.745 c -3.513,-0.319 -5.853,2.165 -5.866,2.239 -2.244,13.116 -5.188,21.865 -4.766,34.074 0,0.11 10.867,9.932 15.711,6.738 2.896,-1.91 2.968,-2.946 2.965,-3.024 l -1.227,-36.639 c 0,-0.078 -3.304,-3.07 -6.817,-3.388 z" />
  </g>
</svg>
