<?xml version="1.0" encoding="UTF-8" standalone="no"?>
<!-- Created with Inkscape (http://www.inkscape.org/) -->

<svg
   xmlns:dc="http://purl.org/dc/elements/1.1/"
   xmlns:cc="http://creativecommons.org/ns#"
   xmlns:rdf="http://www.w3.org/1999/02/22-rdf-syntax-ns#"
   xmlns:svg="http://www.w3.org/2000/svg"
   xmlns="http://www.w3.org/2000/svg"
   xmlns:sodipodi="http://sodipodi.sourceforge.net/DTD/sodipodi-0.dtd"
   xmlns:inkscape="http://www.inkscape.org/namespaces/inkscape"
   width="1080"
   height="400"
   viewBox="0 0 285.75002 105.83334"
   version="1.1"
   id="svg8"
   inkscape:version="0.92.3 (2405546, 2018-03-11)"
   sodipodi:docname="jb_eyes.svg">
  <defs
     id="defs2" />
  <sodipodi:namedview
     id="base"
     pagecolor="#ffffff"
     bordercolor="#666666"
     borderopacity="1.0"
     inkscape:pageopacity="0.0"
     inkscape:pageshadow="2"
     inkscape:zoom="0.49497475"
     inkscape:cx="1288.5447"
     inkscape:cy="486.71789"
     inkscape:document-units="mm"
     inkscape:current-layer="layer1"
     showgrid="false"
     inkscape:snap-to-guides="false"
     inkscape:snap-grids="false"
     units="px"
     inkscape:window-width="2208"
     inkscape:window-height="1084"
     inkscape:window-x="399"
     inkscape:window-y="288"
     inkscape:window-maximized="0" />
  <metadata
     id="metadata5">
    <rdf:RDF>
      <cc:Work
         rdf:about="">
        <dc:format>image/svg+xml</dc:format>
        <dc:type
           rdf:resource="http://purl.org/dc/dcmitype/StillImage" />
        <dc:title></dc:title>
      </cc:Work>
    </rdf:RDF>
  </metadata>
  <g
     inkscape:label="Layer 1"
     inkscape:groupmode="layer"
     id="layer1"
     style="display:inline"
     transform="translate(0,-191.16665)">
    <g
       id="g4793"
       transform="matrix(14.096066,0,0,14.096066,-1624.5227,-1795.1207)">
      <g
         id="g4805"
         transform="translate(0.3504057,0.12742025)">
        <path
           sodipodi:nodetypes="ccccc"
           inkscape:connector-curvature="0"
           id="path4779"
           d="m 122.1315,146.53004 c -0.25232,0.46137 -1.44778,0.82062 -2.27873,0.83633 -0.87023,0 -1.21208,-0.0679 -1.57572,-1.01815 0,-0.56231 -0.10663,-1.41815 0.76362,-1.41815 0.87333,0.003 3.6387,1.49421 3.09083,1.59997 z"
           style="opacity:1;vector-effect:none;fill:#743623;fill-opacity:1;fill-rule:evenodd;stroke:none;stroke-width:19.36473274;stroke-linecap:round;stroke-linejoin:miter;stroke-miterlimit:4;stroke-dasharray:none;stroke-dashoffset:0;stroke-opacity:1" />
        <path
           style="opacity:1;vector-effect:none;fill:#743623;fill-opacity:1;fill-rule:evenodd;stroke:none;stroke-width:19.36725807;stroke-linecap:round;stroke-linejoin:miter;stroke-miterlimit:4;stroke-dasharray:none;stroke-dashoffset:0;stroke-opacity:1"
           d="m 127.34802,146.62981 c 0.25898,0.44961 1.58558,0.6107 2.4385,0.62601 1.12842,-0.40189 2.31901,-0.55653 2.61269,-1.34653 0,-0.54797 -1.33375,-0.76777 -2.227,-0.76777 -0.89643,0.003 -3.38655,1.38523 -2.82419,1.48829 z"
           id="path4781"
           inkscape:connector-curvature="0"
           sodipodi:nodetypes="ccccc" />
        <path
           style="opacity:1;vector-effect:none;fill:#cccccc;fill-opacity:1;fill-rule:evenodd;stroke:none;stroke-width:18.41256142;stroke-linecap:round;stroke-linejoin:miter;stroke-miterlimit:4;stroke-dasharray:none;stroke-dashoffset:0;stroke-opacity:1"
           d="m 122.02401,146.62454 c -0.23408,0.44961 -1.34315,0.79969 -2.11406,0.815 -0.80735,0 -1.1245,-0.0662 -1.46185,-0.99218 0,-0.54797 -0.0989,-1.38198 0.70843,-1.38198 0.81023,0.003 3.37577,1.4561 2.86748,1.55916 z"
           id="ellipse4760"
           inkscape:connector-curvature="0"
           sodipodi:nodetypes="ccccc" />
        <path
           style="opacity:1;vector-effect:none;fill:#552200;fill-opacity:1;fill-rule:evenodd;stroke:none;stroke-width:15.875;stroke-linecap:round;stroke-linejoin:miter;stroke-miterlimit:4;stroke-dasharray:none;stroke-dashoffset:0;stroke-opacity:1"
           d="m 121.3523,146.44736 c 0,0.54797 -0.40301,0.85854 -1.00316,0.85855 -0.60016,-1e-5 -1.00316,-0.31058 -1.00316,-0.85855 0,-0.54797 0.48652,-0.99219 1.08668,-0.99219 0.38304,0.10856 0.89931,0.45439 0.91964,0.99219 z"
           id="path4758"
           inkscape:connector-curvature="0"
           sodipodi:nodetypes="ccccc" />
        <path
           sodipodi:nodetypes="ccccc"
           inkscape:connector-curvature="0"
           id="path4763"
           d="m 127.41205,146.67441 c 0.23324,0.44961 1.42794,0.6107 2.19607,0.62601 1.01623,-0.40189 2.08846,-0.55653 2.35293,-1.34653 0,-0.54797 -1.20114,-0.76777 -2.00559,-0.76777 -0.8073,0.003 -3.04986,1.38523 -2.54341,1.48829 z"
           style="opacity:1;vector-effect:none;fill:#cccccc;fill-opacity:1;fill-rule:evenodd;stroke:none;stroke-width:18.37931061;stroke-linecap:round;stroke-linejoin:miter;stroke-miterlimit:4;stroke-dasharray:none;stroke-dashoffset:0;stroke-opacity:1" />
        <path
           style="opacity:1;vector-effect:none;fill:#552200;fill-opacity:1;fill-rule:evenodd;stroke:none;stroke-width:15.43405437;stroke-linecap:round;stroke-linejoin:miter;stroke-miterlimit:4;stroke-dasharray:none;stroke-dashoffset:0;stroke-opacity:1"
           d="m 128.27018,146.37709 c 0,0.51795 0.58101,0.91167 1.18117,0.91167 0.60016,0 0.72492,-0.33056 0.72492,-0.84851 0,-0.51795 -0.21925,-0.93784 -0.81941,-0.93784 -0.60016,0 -1.08668,0.35673 -1.08668,0.87468 z"
           id="ellipse4765"
           inkscape:connector-curvature="0"
           sodipodi:nodetypes="ccccc" />
        <ellipse
           transform="scale(-1,1)"
           style="opacity:1;vector-effect:none;fill:#f9f9f9;fill-opacity:1;fill-rule:evenodd;stroke:none;stroke-width:5.17663097;stroke-linecap:round;stroke-linejoin:miter;stroke-miterlimit:4;stroke-dasharray:none;stroke-dashoffset:0;stroke-opacity:1"
           id="ellipse4767"
           cx="-129.35686"
           cy="146.4946"
           rx="0.35435274"
           ry="0.32353944" />
        <ellipse
           ry="0.32353944"
           rx="0.35435274"
           cy="146.44736"
           cx="-120.33267"
           id="ellipse4769"
           style="opacity:1;vector-effect:none;fill:#f9f9f9;fill-opacity:1;fill-rule:evenodd;stroke:none;stroke-width:5.17663097;stroke-linecap:round;stroke-linejoin:miter;stroke-miterlimit:4;stroke-dasharray:none;stroke-dashoffset:0;stroke-opacity:1"
           transform="scale(-1,1)" />
        <path
           sodipodi:nodetypes="ccsccsc"
           inkscape:connector-curvature="0"
           id="path4771"
           d="m 122.10994,144.85278 c -0.24588,0.44961 0.19554,0.39809 -0.61422,0.4134 -1.49368,-1.09254 -2.73441,-2.70707 -3.95425,-2.90454 -0.77795,-0.12593 -1.30705,0.52699 -1.64452,0.8493 0,-0.54797 0.29769,-1.59459 1.14574,-1.59459 0.24357,8.6e-4 0.96812,-0.68095 1.3318,-0.0111 0.94092,1.73313 3.88796,3.43108 3.73545,3.24749 z"
           style="opacity:1;vector-effect:none;fill:#362714;fill-opacity:1;fill-rule:evenodd;stroke:none;stroke-width:18.87085152;stroke-linecap:round;stroke-linejoin:miter;stroke-miterlimit:4;stroke-dasharray:none;stroke-dashoffset:0;stroke-opacity:1" />
        <path
           style="opacity:1;vector-effect:none;fill:#362714;fill-opacity:1;fill-rule:evenodd;stroke:none;stroke-width:18.87085152;stroke-linecap:round;stroke-linejoin:miter;stroke-miterlimit:4;stroke-dasharray:none;stroke-dashoffset:0;stroke-opacity:1"
           d="m 126.89826,145.31538 c 0.11422,0.49956 -0.29651,0.32983 0.4785,0.56498 1.73467,-0.64471 3.25109,-1.6267 4.47863,-1.48467 0.78285,0.0906 0.9138,0.36173 1.15079,0.76373 0.14916,-0.52728 0.40773,-0.7802 -0.58491,-1.29501 -1.25972,0.0922 -1.78188,-0.46774 -2.43109,0.12794 -1.45308,1.33328 -3.28863,1.45813 -3.09191,1.32299 z"
           id="path4775"
           inkscape:connector-curvature="0"
           sodipodi:nodetypes="ccsccscc" />
      </g>
    </g>
  </g>
</svg>
